<?xml version="1.0" encoding="UTF-8"?>
<!DOCTYPE svg PUBLIC "-//W3C//DTD SVG 1.1//EN" "http://www.w3.org/Graphics/SVG/1.1/DTD/svg11.dtd">
<!-- Creator: CorelDRAW 2021.5 -->
<svg xmlns="http://www.w3.org/2000/svg" xml:space="preserve" width="45.8208mm" height="15.3821mm" version="1.1" style="shape-rendering:geometricPrecision; text-rendering:geometricPrecision; image-rendering:optimizeQuality; fill-rule:evenodd; clip-rule:evenodd"
viewBox="0 0 2677.78 898.93"
 xmlns:xlink="http://www.w3.org/1999/xlink"
 xmlns:xodm="http://www.corel.com/coreldraw/odm/2003">
 <defs>
  <style type="text/css">
   <![CDATA[
    .fil2 {fill:white;fill-rule:nonzero}
    .fil0 {fill:url(#id0)}
    .fil1 {fill:url(#id1)}
   ]]>
  </style>
  <linearGradient id="id0" gradientUnits="userSpaceOnUse" x1="166.25" y1="74.76" x2="187.48" y2="-9.25">
   <stop offset="0" style="stop-opacity:1; stop-color:#E6E6E6"/>
   <stop offset="1" style="stop-opacity:1; stop-color:white"/>
  </linearGradient>
  <linearGradient id="id1" gradientUnits="userSpaceOnUse" x1="387.07" y1="63.61" x2="344.49" y2="150.97">
   <stop offset="0" style="stop-opacity:1; stop-color:#999999"/>
   <stop offset="1" style="stop-opacity:1; stop-color:white"/>
  </linearGradient>
 </defs>
 <g id="Layer_x0020_1">
  <metadata id="CorelCorpID_0Corel-Layer"/>
  <g id="_1566475853008">
   <path class="fil0" d="M108.25 0l-0.21 0 -0.31 0c-1.63,0 -3.4,0.02 -5.38,0.07l0 0c-11.36,0.28 -15.94,0.99 -23.22,3.71l0 0c-8.12,3.02 -7.56,2.53 -43.55,38.41l0 0c-18.71,18.63 -34.36,34.64 -34.81,35.61l0 0c-1.79,3.76 -0.47,7.11 4.11,10.39l0 0c1.37,0.99 33.82,16.15 72.11,33.7l0 0c38.28,17.55 75.88,34.82 83.56,38.36l0 0c7.65,3.54 15.63,7.01 17.74,7.72l0 0c5.76,1.94 11.43,1.58 16.04,-0.95l0 0c2.72,-1.51 16.75,-14.66 68.14,-63.86l0 0c35.61,-34.08 66.06,-62.92 67.67,-64.06l0 0c3.14,-2.24 9.21,-4.77 11.64,-4.86l0 0 1.49 -0.05 -1.63 -0.5c-1.35,-0.4 -202.81,-30.35 -222.6,-33.09l0 0c-2.97,-0.43 -6.24,-0.61 -10.77,-0.61l0.01 0 -0.01 0z"/>
   <path class="fil1" d="M334.52 37.65c-5.31,2.59 0.47,-2.79 -80.16,74.49l0 0c-64.87,62.14 -59.92,58.03 -69.5,57.53l0 0c-3.21,-0.16 -6.31,-0.64 -7.8,-1.23l0 0c-2.45,-0.99 -34.46,-15.59 -37.29,-17.03l0 0 -2.58 -1.3 0 181.72 0 181.15 119.51 0 118.45 0 0 -225.62c0,-161.96 0.05,-227.02 -0.38,-229.1l0 0c-1.47,-7 -6.45,-14.34 -12.54,-18.47l0 0c-5.06,-3.45 -10.25,-5.17 -15.52,-5.17 -4.04,0 -8.1,1.01 -12.19,3.02l0 0 0 0 0 0z"/>
   <path class="fil2" d="M148.01 509.56l227.14 0 0 10.81 -227.14 0 0 -10.81zm-10.82 10.81l227.13 0 0 10.82 -227.13 0 0 -10.82zm0 10.82l21.63 0 0 10.82 -21.63 0 0 -10.82zm32.45 0l205.51 0 0 10.82 -205.51 0 0 -10.82zm-32.45 10.82l118.97 0 0 10.82 -118.97 0 0 -10.82zm227.13 10.82l10.82 0 0 10.82 -10.82 0 0 -10.82zm-37.86 -10.82l48.68 0 0 10.82 -48.68 0 0 -10.82zm-59.49 0l48.67 0 0 10.82 -48.67 0 0 -10.82zm-129.78 10.82l48.67 0 0 10.82 -48.67 0 0 -10.82zm97.33 0l118.98 0 0 10.82 -118.98 0 0 -10.82zm-37.84 0l27.05 0 0 10.82 -27.05 0 0 -10.82zm-21.63 10.82l118.96 0 0 10.82 -118.96 0 0 -10.82zm-37.86 0l27.05 0 0 10.82 -27.05 0 0 -10.82zm10.82 10.82l48.67 0 0 10.82 -48.67 0 0 -10.82zm-10.82 10.82l48.67 0 0 10.82 -48.67 0 0 -10.82zm70.31 -10.82l48.66 0 0 10.82 -48.66 0 0 -10.82zm59.47 0l48.67 0 0 10.82 -48.67 0 0 -10.82zm59.49 0l48.68 0 0 10.82 -48.68 0 0 -10.82zm-21.63 -10.82l59.49 0 0 10.82 -59.49 0 0 -10.82zm-108.15 21.63l37.84 0 0 10.82 -37.84 0 0 -10.82zm91.93 0l48.67 0 0 10.82 -48.67 0 0 -10.82zm-43.27 0l32.45 0 0 10.82 -32.45 0 0 -10.82zm102.76 0l27.05 0 0 10.82 -27.05 0 0 -10.82zm-10.82 10.82l27.04 0 0 10.82 -27.04 0 0 -10.82zm-37.86 0l27.05 0 0 10.82 -27.05 0 0 -10.82zm-37.86 0l27.05 0 0 10.82 -27.05 0 0 -10.82zm-37.83 0l27.02 0 0 10.82 -27.02 0 0 -10.82zm-37.86 0l27.05 0 0 10.82 -27.05 0 0 -10.82zm-48.67 0l27.05 0 0 10.82 -27.05 0 0 -10.82zm48.67 10.82l16.23 0 0 10.82 -16.23 0 0 -10.82zm-10.81 -10.82l10.81 0 0 10.82 -10.81 0 0 -10.82zm-27.05 10.82l27.05 0 0 10.82 -27.05 0 0 -10.82zm64.9 0l10.82 0 0 10.82 -10.82 0 0 -10.82zm59.47 0l27.04 0 0 10.82 -27.04 0 0 -10.82zm27.04 10.82l10.82 0 0 10.79 -10.82 0 0 -10.79zm-64.9 -10.82l27.04 0 0 10.82 -27.04 0 0 -10.82zm75.72 0l27.04 0 0 10.82 -27.04 0 0 -10.82zm37.86 0l27.05 0 0 10.82 -27.05 0 0 -10.82zm5.41 10.82l10.82 0 0 10.79 -10.82 0 0 -10.79zm-32.45 0l21.63 0 0 10.79 -21.63 0 0 -10.79zm-59.5 0l10.82 0 0 10.79 -10.82 0 0 -10.79zm-124.37 0l10.82 0 0 10.79 -10.82 0 0 -10.79zm59.49 0l10.82 0 0 10.79 -10.82 0 0 -10.79zm-37.86 0l27.04 0 0 10.79 -27.04 0 0 -10.79zm59.5 0l32.42 0 0 10.79 -32.42 0 0 -10.79zm129.78 10.79l27.05 0 0 10.82 -27.05 0 0 -10.82zm-200.09 10.82l10.82 0 0 10.82 -10.82 0 0 -10.82zm21.63 0l21.63 0 0 10.82 -21.63 0 0 -10.82zm81.1 -10.82l10.82 0 0 10.82 -10.82 0 0 -10.82zm-48.65 10.82l21.63 0 0 10.82 -21.63 0 0 -10.82zm-16.23 -10.82l21.63 0 0 10.82 -21.63 0 0 -10.82zm32.46 0l21.61 0 0 10.82 -21.61 0 0 -10.82zm91.92 10.82l21.63 0 0 10.82 -21.63 0 0 -10.82zm-37.86 -10.82l16.23 0 0 10.82 -16.23 0 0 -10.82zm-5.41 10.82l10.82 0 0 10.82 -10.82 0 0 -10.82zm75.72 0l21.64 0 0 10.82 -21.64 0 0 -10.82zm10.82 21.63l21.64 0 0 10.82 -21.64 0 0 -10.82zm0 -10.82l10.82 0 0 10.82 -10.82 0 0 -10.82zm-21.63 10.82l10.81 0 0 10.82 -10.81 0 0 -10.82zm-27.05 0l16.23 0 0 10.82 -16.23 0 0 -10.82zm-21.63 -10.82l10.82 0 0 10.82 -10.82 0 0 -10.82zm81.13 32.45l10.82 0 0 10.82 -10.82 0 0 -10.82zm-108.17 -32.45l16.22 0 0 10.82 -16.22 0 0 -10.82zm-27.05 0l16.23 0 0 10.82 -16.23 0 0 -10.82zm-91.92 0l16.22 0 0 10.82 -16.22 0 0 -10.82zm27.05 0l16.22 0 0 10.82 -16.22 0 0 -10.82zm43.26 0l10.82 0 0 10.82 -10.82 0 0 -10.82zm64.88 10.82l10.82 0 0 10.82 -10.82 0 0 -10.82zm0 21.63l10.82 0 0 10.82 -10.82 0 0 -10.82zm-135.19 -10.82l10.82 0 0 10.82 -10.82 0 0 -10.82zm21.63 0l10.82 0 0 10.82 -10.82 0 0 -10.82zm10.82 -10.82l10.82 0 0 10.82 -10.82 0 0 -10.82zm21.63 0l10.82 0 0 10.82 -10.82 0 0 -10.82zm21.63 0l10.82 0 0 10.82 -10.82 0 0 -10.82zm-32.45 10.82l10.82 0 0 10.82 -10.82 0 0 -10.82zm54.06 0l10.82 0 0 10.82 -10.82 0 0 -10.82zm21.63 0l10.82 0 0 10.82 -10.82 0 0 -10.82zm-108.15 10.82l10.82 0 0 10.82 -10.82 0 0 -10.82zm-10.82 21.63l10.82 0 0 10.82 -10.82 0 0 -10.82zm43.27 0l10.82 0 0 10.82 -10.82 0 0 -10.82zm32.45 0l10.82 0 0 10.82 -10.82 0 0 -10.82zm91.92 21.63l10.82 0 0 10.82 -10.82 0 0 -10.82zm-27.04 -21.63l10.82 0 0 10.82 -10.82 0 0 -10.82zm86.53 0l10.82 0 0 10.82 -10.82 0 0 -10.82zm-43.26 -21.63l10.82 0 0 10.82 -10.82 0 0 -10.82zm-16.23 10.82l10.82 0 0 10.82 -10.82 0 0 -10.82zm37.86 0l10.82 0 0 10.82 -10.82 0 0 -10.82zm-16.22 43.27l10.82 0 0 10.82 -10.82 0 0 -10.82zm37.86 10.82l10.82 0 0 10.81 -10.82 0 0 -10.81zm0 48.67l10.82 0 0 10.82 -10.82 0 0 -10.82zm0 91.92l10.82 0 0 10.82 -10.82 0 0 -10.82zm-54.08 -32.45l10.82 0 0 10.82 -10.82 0 0 -10.82zm-54.09 -48.67l10.82 0 0 10.82 -10.82 0 0 -10.82zm-97.33 5.41l10.82 0 0 10.82 -10.82 0 0 -10.82zm162.24 -32.43l10.82 0 0 10.82 -10.82 0 0 -10.82zm-162.24 -21.64l10.82 0 0 10.82 -10.82 0 0 -10.82zm64.9 86.51l10.79 0 0 10.82 -10.79 0 0 -10.82zm-86.54 10.82l10.82 0 0 10.82 -10.82 0 0 -10.82zm0 -86.51l10.82 0 0 10.82 -10.82 0 0 -10.82zm97.33 -21.63l10.82 0 0 10.81 -10.82 0 0 -10.81zm54.09 21.63l10.81 0 0 10.82 -10.81 0 0 -10.82zm-75.7 10.82l10.82 0 0 10.82 -10.82 0 0 -10.82zm-75.72 -54.09l10.82 0 0 10.82 -10.82 0 0 -10.82zm227.13 43.26l10.82 0 0 10.82 -10.82 0 0 -10.82zm-118.98 -54.08l10.82 0 0 10.82 -10.82 0 0 -10.82zm75.72 -10.82l10.82 0 0 10.82 -10.82 0 0 -10.82zm0 113.56l10.82 0 0 10.82 -10.82 0 0 -10.82zm-129.78 -81.1l10.82 0 0 10.82 -10.82 0 0 -10.82zm86.51 10.82l10.82 0 0 10.81 -10.82 0 0 -10.81zm64.9 0l10.82 0 0 10.81 -10.82 0 0 -10.81zm-140.6 -64.9l10.82 0 0 10.82 -10.82 0 0 -10.82zm32.43 0l10.82 0 0 10.82 -10.82 0 0 -10.82zm-75.7 10.82l10.82 0 0 10.82 -10.82 0 0 -10.82zm10.82 32.45l10.82 0 0 10.82 -10.82 0 0 -10.82zm43.27 0l10.82 0 0 10.82 -10.82 0 0 -10.82zm43.25 0l10.82 0 0 10.82 -10.82 0 0 -10.82zm75.72 0l10.81 0 0 10.82 -10.81 0 0 -10.82zm32.45 0l10.82 0 0 10.82 -10.82 0 0 -10.82z"/>
   <path class="fil2" d="M1119.04 777.67l-131.34 0 0 -40.87c-38.03,24.91 -83.51,39.4 -132.36,39.4 -66.8,0 -127.27,-27.07 -171.04,-70.85 -43.77,-43.77 -70.85,-104.24 -70.85,-171.04 0,-66.79 27.08,-127.26 70.85,-171.04 43.77,-43.77 104.24,-70.85 171.04,-70.85 48.85,0 94.32,14.49 132.36,39.41l0 -161.64 131.34 -49.27 0 656.75zm-184.09 -322.96c-20.37,-20.37 -48.51,-32.97 -79.6,-32.97 -31.1,0 -59.24,12.6 -79.61,32.97 -20.37,20.37 -32.97,48.52 -32.97,79.61 0,31.1 12.59,59.25 32.96,79.61 20.37,20.37 48.52,32.96 79.62,32.96 31.09,0 59.24,-12.59 79.61,-32.97 20.37,-20.37 32.97,-48.51 32.97,-79.61 0,-31.09 -12.6,-59.24 -32.97,-79.61l0 0z"/>
   <path class="fil2" d="M1283.07 777.67l-131.37 0 0 -443.67 131.37 -36.02 0 479.68zm-65.69 -625.74c36.28,0 65.69,29.41 65.69,65.68 0,36.28 -29.41,65.69 -65.69,65.69 -36.27,0 -65.68,-29.41 -65.68,-65.69 0,-36.27 29.41,-65.68 65.68,-65.68z"/>
   <path class="fil2" d="M1448.07 776.5l-131.34 0 0 -442.39 131.34 -35.95 0 20.64c33.45,-17.48 71.49,-27.36 111.83,-27.36 66.79,0 127.26,27.08 171.03,70.85 2.11,2.1 4.17,4.25 6.2,6.43 2.03,-2.19 4.1,-4.33 6.21,-6.43 43.78,-43.78 104.26,-70.85 171.05,-70.85 66.79,0 127.25,27.08 171.03,70.85 40.42,40.42 66.6,95.08 70.38,155.8l0.46 0 0 13.32c0.01,0.64 0.01,1.27 0.01,1.91l-0.01 0 0 244.64 -129.31 0 0 -246.23c-0.42,-30.46 -12.93,-58 -32.95,-78.02 -20.37,-20.37 -48.52,-32.97 -79.61,-32.97 -31.1,0 -59.25,12.6 -79.62,32.97 -20.03,20.03 -32.55,47.57 -32.97,78.04l0 246.2 -129.31 0 0 -244.64 -0.01 0c0,-31.09 -12.6,-59.24 -32.97,-79.61 -20.37,-20.37 -48.52,-32.97 -79.61,-32.97 -31.09,0 -59.24,12.61 -79.61,32.97 -17.49,17.49 -29.24,40.71 -32.22,66.6l0 256.18z"/>
   <path class="fil2" d="M2536.86 484.81c-5.58,-11.39 -13,-21.71 -21.87,-30.58 -20.69,-20.69 -49.27,-33.49 -80.85,-33.49 -31.58,0 -60.16,12.8 -80.86,33.49 -8.87,8.87 -16.29,19.2 -21.87,30.58l205.45 0zm-204.99 101.44c5.53,11.03 12.79,21.04 21.42,29.68 20.69,20.69 49.28,33.49 80.85,33.49 17.37,0 33.64,-3.72 48.04,-10.37 15.12,-6.98 28.42,-17.16 39.04,-29.66l98.5 83.34c-22.77,26.81 -51.23,48.59 -83.49,63.51 -31.24,14.44 -65.84,22.49 -102.09,22.49 -67.26,0 -128.18,-27.29 -172.28,-71.38 -44.1,-44.1 -71.38,-105.02 -71.38,-172.28 0,-67.27 27.28,-128.17 71.37,-172.26 44.1,-44.09 105.02,-71.37 172.28,-71.37 67.27,0 128.18,27.27 172.27,71.36 44.09,44.09 71.37,105 71.37,172.27 0,7.59 -0.51,16.14 -1.5,25.57 -0.93,8.92 -2.23,17.31 -3.88,25.16l0 0.44 -68.59 0 -271.95 0 0 0z"/>
  </g>
 </g>
</svg>
