<?xml version="1.0" encoding="UTF-8"?>
<!DOCTYPE svg PUBLIC "-//W3C//DTD SVG 1.1//EN" "http://www.w3.org/Graphics/SVG/1.1/DTD/svg11.dtd">
<!-- Creator: CorelDRAW 2021.5 -->
<svg xmlns="http://www.w3.org/2000/svg" xml:space="preserve" width="33.1554mm" height="33.1554mm" version="1.1" style="shape-rendering:geometricPrecision; text-rendering:geometricPrecision; image-rendering:optimizeQuality; fill-rule:evenodd; clip-rule:evenodd"
viewBox="0 0 3303.33 3303.33"
 xmlns:xlink="http://www.w3.org/1999/xlink"
 xmlns:xodm="http://www.corel.com/coreldraw/odm/2003">
 <defs>
  <style type="text/css">
   <![CDATA[
    .str0 {stroke:#A8518A;stroke-width:7.59;stroke-miterlimit:22.9256}
    .fil3 {fill:#AC7D22}
    .fil0 {fill:#A8518A;fill-rule:nonzero}
    .fil2 {fill:url(#id0)}
    .fil1 {fill:url(#id1)}
    .fil4 {fill:url(#id2);fill-rule:nonzero}
   ]]>
  </style>
  <linearGradient id="id0" gradientUnits="userSpaceOnUse" x1="-0" y1="1651.66" x2="3303.33" y2="1651.66">
   <stop offset="0" style="stop-opacity:1; stop-color:#AC7D22"/>
   <stop offset="0.529412" style="stop-opacity:1; stop-color:#F2DCA9"/>
   <stop offset="1" style="stop-opacity:1; stop-color:#F3CC55"/>
  </linearGradient>
  <linearGradient id="id1" gradientUnits="userSpaceOnUse" x1="924.36" y1="870.23" x2="1992.63" y2="1613.24">
   <stop offset="0" style="stop-opacity:1; stop-color:#823E03"/>
   <stop offset="0.141176" style="stop-opacity:1; stop-color:#FEFEFE"/>
   <stop offset="0.25098" style="stop-opacity:1; stop-color:#EF843E"/>
   <stop offset="0.411765" style="stop-opacity:1; stop-color:#AC7D22"/>
   <stop offset="0.568627" style="stop-opacity:1; stop-color:#FCE0CD"/>
   <stop offset="1" style="stop-opacity:1; stop-color:#AC7D22"/>
  </linearGradient>
  <linearGradient id="id2" gradientUnits="userSpaceOnUse" x1="1415.28" y1="1349.6" x2="1773.61" y2="1349.6">
   <stop offset="0" style="stop-opacity:1; stop-color:#EF843E"/>
   <stop offset="1" style="stop-opacity:1; stop-color:#AC7D22"/>
  </linearGradient>
 </defs>
 <g id="Layer_x0020_1">
  <metadata id="CorelCorpID_0Corel-Layer"/>
  <g id="_1977115047184">
   <path class="fil0" d="M1470.09 1912.98l-65.38 140.87c-1.13,2.53 -2.53,4.64 -4.21,6.33 -1.4,1.4 -3.38,2.75 -5.91,4.02 -2.53,1.27 -5.48,1.89 -8.86,1.89 -3.66,0 -6.68,-0.63 -9.07,-1.89 -2.39,-1.27 -4.28,-2.61 -5.69,-4.02 -1.69,-1.68 -3.1,-3.8 -4.22,-6.33l-65.37 -140.87 0 157.32c0,5.91 -2.04,10.9 -6.12,14.97 -4.07,4.07 -9.07,6.12 -14.97,6.12 -5.91,0 -10.9,-2.04 -14.97,-6.12 -4.07,-4.07 -6.12,-9.07 -6.12,-14.97l0 -253.05c0,-5.91 2.04,-10.9 6.12,-14.97 4.07,-4.07 9.07,-6.12 14.97,-6.12 4.21,0 8.01,1.13 11.39,3.38 3.38,2.24 5.91,5.2 7.59,8.86l86.46 186.42 86.46 -186.42c1.69,-3.66 4.22,-6.62 7.59,-8.86 3.38,-2.25 7.17,-3.38 11.39,-3.38 5.91,0 10.9,2.04 14.97,6.12 4.08,4.07 6.12,9.07 6.12,14.97l0 253.05c0,5.91 -2.03,10.9 -6.12,14.97 -4.07,4.07 -9.07,6.12 -14.97,6.12 -5.9,0 -10.89,-2.04 -14.96,-6.12 -4.08,-4.07 -6.12,-9.07 -6.12,-14.97l0 -157.32z"/>
   <path id="_1" class="fil0" d="M1769.55 1912.98l-65.38 140.87c-1.13,2.53 -2.53,4.64 -4.21,6.33 -1.4,1.4 -3.38,2.75 -5.91,4.02 -2.53,1.27 -5.48,1.89 -8.86,1.89 -3.66,0 -6.68,-0.63 -9.07,-1.89 -2.39,-1.27 -4.28,-2.61 -5.69,-4.02 -1.69,-1.68 -3.1,-3.8 -4.22,-6.33l-65.37 -140.87 0 157.32c0,5.91 -2.04,10.9 -6.12,14.97 -4.07,4.07 -9.07,6.12 -14.97,6.12 -5.91,0 -10.9,-2.04 -14.97,-6.12 -4.07,-4.07 -6.12,-9.07 -6.12,-14.97l0 -253.05c0,-5.91 2.04,-10.9 6.12,-14.97 4.07,-4.07 9.07,-6.12 14.97,-6.12 4.21,0 8.01,1.13 11.39,3.38 3.38,2.24 5.91,5.2 7.59,8.86l86.46 186.42 86.46 -186.42c1.69,-3.66 4.22,-6.62 7.59,-8.86 3.38,-2.25 7.17,-3.38 11.39,-3.38 5.91,0 10.9,2.04 14.97,6.12 4.08,4.07 6.12,9.07 6.12,14.97l0 253.05c0,5.91 -2.03,10.9 -6.12,14.97 -4.07,4.07 -9.07,6.12 -14.97,6.12 -5.9,0 -10.89,-2.04 -14.96,-6.12 -4.08,-4.07 -6.12,-9.07 -6.12,-14.97l0 -157.32z"/>
   <path id="_2" class="fil0" d="M1858.11 1901.59c0,-14.62 2.74,-28.33 8.23,-41.12 5.48,-12.79 13,-23.97 22.57,-33.54 9.55,-9.55 20.73,-17.08 33.53,-22.57 12.79,-5.48 26.5,-8.22 41.13,-8.22 14.62,0 28.26,2.74 40.91,8.22 12.65,5.49 23.9,13.01 33.75,22.57 3.94,4.22 5.9,9.21 5.9,14.97 0,5.77 -1.96,10.76 -5.9,14.97 -4.22,3.94 -9.29,5.91 -15.18,5.91 -5.91,0 -10.83,-1.97 -14.77,-5.91 -5.63,-5.63 -12.3,-10.12 -20.04,-13.5 -7.73,-3.37 -15.96,-5.06 -24.67,-5.06 -8.72,0 -16.95,1.69 -24.68,5.06 -7.73,3.38 -14.41,7.87 -20.04,13.5 -5.62,5.62 -10.12,12.3 -13.49,20.04 -3.38,7.73 -5.06,15.95 -5.06,24.67l0 84.36c0,8.72 1.68,16.94 5.06,24.67 3.37,7.73 7.87,14.42 13.49,20.04 5.63,5.62 12.3,10.12 20.04,13.5 7.73,3.37 15.96,5.06 24.68,5.06 8.71,0 16.94,-1.69 24.67,-5.06 7.73,-3.38 14.41,-7.88 20.04,-13.5 4.21,-4.21 9.21,-6.33 14.97,-6.33 5.76,0 10.75,2.11 14.97,6.33 3.94,3.94 5.9,8.86 5.9,14.77 0,5.9 -1.96,10.82 -5.9,14.76 -9.56,9.84 -20.74,17.51 -33.54,22.99 -12.79,5.48 -26.5,8.22 -41.12,8.22 -14.63,0 -28.34,-2.74 -41.13,-8.22 -12.79,-5.49 -23.97,-13.01 -33.53,-22.57 -9.56,-9.56 -17.09,-20.74 -22.57,-33.54 -5.49,-12.79 -8.23,-26.5 -8.23,-41.12l0 -84.36z"/>
   <path class="fil1" d="M2157.95 1216.99c16.39,-64.01 39.18,-5.84 36.11,13.42 -37.7,236.58 -282.73,434.51 -559.56,434.51 -84.26,0 -160.87,-18.68 -226.68,-51.38l0.22 0.15c-37.05,-14.43 -164.21,-80.4 -217.03,-180.17 -65.86,-128.44 -190.56,-261.94 -293.53,-271.67 -68.72,-6.5 -122.47,90.45 -159.76,73.7 -37.29,-16.75 -3.49,-89.76 81.1,-101.8 150.08,-21.37 275.09,88.19 366.3,255.57 18.63,34.19 39.21,63.48 61.34,89.35 -53.16,-72.39 -83.14,-160.56 -83.14,-254.62 0,-194.19 126.13,-347.65 322.63,-400.33 9.21,-2.46 91.63,-19.19 113.15,24.74 20.28,41.41 -100.9,43.49 -122.16,45.53 -48.8,4.69 -89.95,-9.84 -158.81,55.1 -76.76,72.38 -134.85,167.07 -134.85,273.09 0,224.67 202.34,425.87 461.96,425.87 259.62,0 512.72,-206.39 512.72,-431.06z"/>
   <polygon class="fil0" points="846.29,2547.18 846.29,2383.61 833.69,2383.61 833.69,2461.54 729.61,2461.54 729.61,2383.61 717.01,2383.61 717.01,2547.18 729.61,2547.18 729.61,2472.98 833.69,2472.98 833.69,2547.18 "/>
   <path id="_1_0" class="fil0" d="M932.15 2548.82c18.43,0 38.51,-7.47 49.71,-22.17l-8.17 -6.54c-8.64,11.44 -26.37,17.51 -41.54,17.51 -23.8,0 -44.57,-15.63 -46.91,-42.7l103.85 0c4.43,-45.04 -24.5,-64.87 -56.94,-64.87 -32.43,0 -58.57,24.97 -58.57,59.5 0,36.63 26.14,59.27 58.57,59.27zm-46.91 -63.93c2.57,-28.24 23.1,-44.34 46.91,-44.34 27.77,0 46.44,15.86 46.67,44.34l-93.57 0z"/>
   <path id="_2_1" class="fil0" d="M1118.14 2431.91l0 25.2c-9.57,-17.96 -28.47,-26.6 -47.15,-26.6 -32.2,0 -58.56,23.8 -58.56,59.04 0,35.24 26.36,59.5 58.56,59.5 18.67,0 35.94,-8.4 47.15,-26.36l0 24.5 11.43 0c0,-38.5 0,-76.78 0,-115.27l-11.43 0zm-47.15 9.56c64.17,0 64.17,96.37 0,96.37 -26.13,0 -47.14,-19.37 -47.14,-48.3 0,-28.93 21,-48.07 47.14,-48.07z"/>
   <polygon id="_3" class="fil0" points="1160.6,2383.61 1160.6,2547.18 1172.04,2547.18 1172.04,2383.61 "/>
   <path id="_4" class="fil0" d="M1219.17 2398.3l0 33.61 -24.51 0 0 9.56 24.51 0 0 70.24c0,22.64 7.93,37.1 32.43,37.1 7.23,0 14.47,-2.33 21.7,-5.84l-3.97 -9.33c-5.83,2.8 -12.14,4.66 -17.73,4.66 -17.96,0 -21.23,-10.97 -21.23,-26.6l0 -70.24 39.2 0 0 -9.56 -39.2 0 0 -34.77 -11.2 1.17z"/>
   <path id="_5" class="fil0" d="M1295.94 2383.61l0 163.58 11.44 0 0 -63.24c0,-24.03 16.8,-42.7 41.07,-42.7 25.9,0 37.1,16.1 37.1,39.9l0 66.04 11.2 0 0 -66.04c0,-30.1 -16.1,-50.87 -48.3,-50.87 -16.1,0.23 -32.2,6.54 -41.54,23.1l0 -69.77 -10.97 0z"/>
   <path id="_6" class="fil0" d="M1609.1 2423.27c0,-33.6 -26.37,-40.36 -52.51,-40.36 -37.33,0 -58.11,18.19 -58.11,43.4 0,18.2 13.07,32.43 30.1,37.57 -16.33,5.36 -32.9,19.6 -32.9,39.9 0,28 20.76,45.5 60.44,45.5 17.51,0 36.17,-3.51 48.07,-22.87 3.5,13.76 14,22.63 27.3,20.76l0 -9.8c-16.33,0.24 -20.3,-15.39 -20.3,-32.9l0 -35.7 14.93 0 0 -10.04c-24.26,0 -45.03,0 -69.3,0 -19.6,0 -46.2,-7.69 -46.43,-32.66 -0.24,-18.44 14.7,-32.91 45.96,-32.91 21.71,0 41.78,4.43 41.78,30.1l10.97 0zm-8.17 81.21c0,27.3 -26.37,33.83 -45.03,33.83 -32.91,0 -48.31,-13.53 -48.31,-34.53 0,-16.81 16.34,-35 48.54,-35l44.8 0 0 35.7z"/>
   <polygon id="_7" class="fil0" points="1775.7,2533.14 1725.3,2383.61 1712,2383.61 1769.18,2547.65 1782.71,2547.65 1808.84,2470.52 1829.38,2406.28 1849.91,2470.99 1875.81,2547.65 1889.34,2547.65 1946.98,2383.61 1933.45,2383.61 1882.82,2533.14 1832.87,2383.61 1825.88,2383.61 "/>
   <path id="_8" class="fil0" d="M1999.49 2548.82c18.43,0 38.51,-7.47 49.71,-22.17l-8.17 -6.54c-8.64,11.44 -26.37,17.51 -41.54,17.51 -23.8,0 -44.57,-15.63 -46.91,-42.7l103.85 0c4.43,-45.04 -24.5,-64.87 -56.94,-64.87 -32.43,0 -58.57,24.97 -58.57,59.5 0,36.63 26.14,59.27 58.57,59.27zm-46.91 -63.93c2.57,-28.24 23.1,-44.34 46.91,-44.34 27.77,0 46.44,15.86 46.67,44.34l-93.57 0z"/>
   <polygon id="_9" class="fil0" points="2086.06,2383.61 2086.06,2547.18 2097.49,2547.18 2097.49,2383.61 "/>
   <polygon id="_10" class="fil0" points="2129.46,2383.61 2129.46,2547.18 2140.89,2547.18 2140.89,2383.61 "/>
   <path id="_11" class="fil0" d="M2172.86 2431.91l0 115.27 11.44 0 0 -64.17c0,-23.8 16.57,-41.77 40.37,-42 24.97,-0.23 41.07,13.77 41.07,39.9l0 66.27 11.43 0 0 -66.5c0,-31.97 -21.23,-50.87 -52.04,-50.87 -16.1,0.24 -32.2,6.76 -41.07,22.64l0 -20.53 -11.2 0z"/>
   <path id="_12" class="fil0" d="M2359.07 2548.82c18.43,0 38.51,-7.47 49.71,-22.17l-8.17 -6.54c-8.64,11.44 -26.37,17.51 -41.54,17.51 -23.8,0 -44.57,-15.63 -46.91,-42.7l103.85 0c4.43,-45.04 -24.5,-64.87 -56.94,-64.87 -32.43,0 -58.57,24.97 -58.57,59.5 0,36.63 26.14,59.27 58.57,59.27zm-46.91 -63.93c2.57,-28.24 23.1,-44.34 46.91,-44.34 27.77,0 46.44,15.86 46.67,44.34l-93.57 0z"/>
   <path id="_13" class="fil0" d="M2531.75 2445.44c-11.44,-10.73 -26.14,-15.39 -42.94,-15.39 -23.33,-0.24 -45.97,9.56 -45.73,32.2 0.23,23.09 22.4,27.3 44.79,31.04 18.9,3.03 38.04,6.3 37.57,22.87 -0.7,18.2 -21.93,21.94 -35.94,21.94 -15.39,0 -32.67,-5.84 -42.23,-19.61l-8.4 7.47c10.03,15.39 30.1,23.09 50.4,23.09 20.3,0 46.67,-6.76 47.36,-32.2 1.17,-26.83 -27.06,-30.33 -47.6,-33.83 -14.47,-2.56 -34.53,-5.6 -35,-21 -0.47,-14.7 16.81,-21.46 34.77,-21.23 12.83,0 24.27,1.86 35.94,12.14l7 -7.47z"/>
   <path id="_14" class="fil0" d="M2648.19 2445.44c-11.44,-10.73 -26.14,-15.39 -42.94,-15.39 -23.33,-0.24 -45.97,9.56 -45.73,32.2 0.23,23.09 22.4,27.3 44.79,31.04 18.9,3.03 38.04,6.3 37.57,22.87 -0.7,18.2 -21.93,21.94 -35.94,21.94 -15.39,0 -32.67,-5.84 -42.23,-19.61l-8.4 7.47c10.03,15.39 30.1,23.09 50.4,23.09 20.3,0 46.67,-6.76 47.36,-32.2 1.17,-26.83 -27.06,-30.33 -47.6,-33.83 -14.47,-2.56 -34.53,-5.6 -35,-21 -0.47,-14.7 16.81,-21.46 34.77,-21.23 12.83,0 24.27,1.86 35.94,12.14l7 -7.47z"/>
   <path class="fil2" d="M1651.67 0.01c912.19,0 1651.65,739.47 1651.65,1651.66 0,912.19 -739.47,1651.65 -1651.65,1651.65 -912.2,0 -1651.66,-739.47 -1651.66,-1651.65 0,-912.2 739.47,-1651.66 1651.66,-1651.66zm-0.01 71.18c872.88,0 1580.49,707.6 1580.49,1580.48 0,872.88 -707.6,1580.49 -1580.49,1580.49 -872.87,0 -1580.48,-707.6 -1580.48,-1580.49 0,-872.87 707.6,-1580.48 1580.48,-1580.48z"/>
   <rect class="fil3" x="1113.56" y="2202.39" width="1035.21" height="58.59"/>
   <g>
    <g>
     <path class="fil0" d="M1473.47 947.62c-0.09,5.34 2.18,11.44 5.97,12.77 7.8,2.86 7.42,2.86 14.12,-3.53 3.47,-3.34 4.46,-5.8 3.51,-9.25l-23.59 0z"/>
     <path class="fil0" d="M1983.28 947.62c-1.89,6.37 1.46,9.12 8.15,6.76 2.97,-1.27 4.47,-3.95 3.99,-6.76l-12.14 0z"/>
     <path class="fil0" d="M1367.6 969.64c1.49,2.13 4.09,2.85 5.95,1.78 5.2,-3.2 4.08,-5.33 -2.6,-5.33 -2.97,0 -4.45,1.77 -3.35,3.55z"/>
     <path class="fil0" d="M1541.12 974.62c0.37,3.56 2.97,6.04 4.82,6.04 5.58,-0.35 4.46,-8.52 -1.11,-10.29 -3.35,-1.07 -4.83,0.71 -3.72,4.25l0 0z"/>
     <path class="fil0" d="M1519.57 1016.17c-1.12,2.13 -0.38,5.69 1.85,7.82 3.35,3.19 5.2,2.84 7.8,-1.07 3.35,-5.33 1.48,-10.66 -3.72,-10.66 -1.85,0 -4.45,1.77 -5.94,3.91l0 0z"/>
     <path class="fil0" d="M1500.62 1035.71c-16.72,6.75 -17.83,11.01 -5.2,17.41 14.49,7.1 25.27,6.75 29.35,-1.07 7.8,-13.86 -6.32,-23.44 -24.15,-16.34l0 0z"/>
     <path class="fil0" d="M1640.69 1042.11c-6.69,8.16 -2.97,20.95 8.17,26.99 12.26,6.39 22.67,2.13 24.52,-10.3 2.6,-16.34 -21.92,-28.77 -32.69,-16.7l0 0.01z"/>
     <path class="fil0" d="M1315.96 1043.88c-1.48,1.77 -0.75,4.26 1.12,5.33 1.85,1.41 4.45,0.71 5.57,-1.07 1.48,-1.78 0.75,-4.26 -1.12,-5.33 -1.85,-1.42 -4.45,-0.71 -5.57,1.07z"/>
     <path class="fil0" d="M1803.05 1045.29c-2.97,7.1 3.35,14.57 10.03,12.08 8.55,-3.19 7.8,-16.69 -1.12,-16.69 -3.72,0 -7.8,2.13 -8.92,4.61l0 0z"/>
     <path class="fil0" d="M1880.34 1065.54c-1.48,2.49 -1.12,5.69 1.12,7.82 5.2,4.97 16.72,0.71 14.86,-5.33 -2.22,-5.68 -12.62,-7.46 -15.97,-2.49z"/>
     <path class="fil0" d="M2055.83 1102.85c-1.47,3.76 -1.33,7.37 0,10.41l0 -10.41z"/>
     <path class="fil0" d="M1420 1110.65c-4.09,3.91 -2.23,8.17 3.34,8.17 2.97,0 5.58,-1.42 5.58,-3.2 0,-4.62 -5.95,-7.81 -8.92,-4.97z"/>
     <path class="fil0" d="M1738.78 1122.73c-1.12,2.13 0,6.04 2.6,8.88 6.69,6.04 16.35,0.71 13.37,-7.1 -2.6,-6.4 -12.25,-7.46 -15.97,-1.77l0 0z"/>
     <path class="fil0" d="M1752.15 1165.34c-5.2,9.24 4.09,24.51 14.87,24.51 4.08,0 10.03,-3.91 13,-8.52 8.55,-12.08 1.86,-23.44 -13,-23.44 -7.06,0 -12.26,2.48 -14.87,7.45z"/>
     <path class="fil0" d="M1882.19 1177.43c-3.71,4.25 -3.34,5.68 1.86,7.45 8.55,3.2 14.87,-3.55 8.17,-8.88 -4.08,-3.2 -6.32,-2.84 -10.03,1.42z"/>
     <path class="fil0" d="M1783.73 1196.95c-1.48,2.49 -1.12,5.69 1.12,7.82 5.2,4.97 16.72,0.71 14.87,-5.33 -2.23,-5.69 -12.63,-7.46 -15.98,-2.49z"/>
     <path class="fil0" d="M1638.83 1200.51c-1.48,2.48 -1.11,5.68 1.12,7.81 5.2,4.97 16.72,0.71 14.87,-5.33 -2.23,-5.68 -12.63,-7.45 -15.98,-2.48z"/>
     <path class="fil0" d="M1489.1 1205.48c0.37,3.55 2.97,6.04 4.83,6.04 5.57,-0.36 4.45,-8.53 -1.12,-10.3 -3.35,-1.07 -4.83,0.71 -3.72,4.26l0 0z"/>
     <path class="fil0" d="M2014.46 1213.65c-4.45,4.25 -2.22,11.72 3.35,11.72 2.97,0 5.57,-2.13 5.57,-4.97 0,-6.04 -5.2,-9.94 -8.92,-6.75z"/>
     <path class="fil0" d="M1315.22 1248.1c-3.34,8.52 1.48,17.05 8.55,15.62 4.45,-0.71 6.69,-4.26 6.69,-9.94 0,-10.3 -11.89,-14.57 -15.23,-5.68z"/>
     <path class="fil0" d="M1399.19 1250.23c0,1.78 1.86,3.56 3.72,3.56 2.23,0 3.72,-1.77 3.72,-3.56 0,-2.12 -1.48,-3.55 -3.72,-3.55 -1.85,0 -3.72,1.42 -3.72,3.55z"/>
     <path class="fil0" d="M1600.56 1291.43c1.49,7.45 8.18,8.17 9.66,0.35 0.75,-3.55 -1.12,-6.04 -4.83,-6.04 -3.72,0 -5.57,2.13 -4.83,5.69z"/>
     <path class="fil0" d="M1901.52 1321.97c-11.9,11.37 2.97,28.41 17.83,20.6 12.63,-6.4 7.05,-24.86 -7.43,-24.86 -3.35,0 -7.8,1.77 -10.4,4.25l0 0z"/>
     <path class="fil0" d="M1612.83 1328.73c-3.72,5.32 0.37,8.17 7.43,5.32 3.34,-1.06 4.83,-3.55 3.72,-5.68 -2.98,-4.61 -8.18,-4.61 -11.15,0.36l0 0z"/>
     <path class="fil0" d="M1568.61 1334.05c-3.34,2.85 -5.94,6.76 -5.94,8.53 0,3.91 10.77,14.21 14.86,14.21 3.35,0 14.87,-9.94 14.87,-12.78 0,-1.07 -1.86,-4.97 -3.72,-8.89 -4.83,-8.16 -12.26,-8.52 -20.07,-1.06l0 -0.01z"/>
     <path class="fil0" d="M2022.26 1344.71c-9.29,8.88 2.98,24.86 15.98,20.95 11.89,-3.55 8.92,-20.95 -3.72,-22.38 -5.2,-0.71 -10.78,0 -12.26,1.42l0 0z"/>
     <path class="fil0" d="M1511.02 1359.62c-5.57,9.94 2.97,20.25 14.12,16.7 6.32,-1.78 7.8,-4.62 7.06,-11.73 -1.48,-12.08 -15.61,-15.27 -21.18,-4.97l0 0z"/>
     <path class="fil0" d="M2024.13 1380.23c1.48,7.45 8.17,8.17 9.65,0.35 0.75,-3.55 -1.11,-6.04 -4.82,-6.04 -3.72,0 -5.58,2.13 -4.83,5.69z"/>
     <path class="fil0" d="M1599.82 1383.42c0,2.84 -1.86,8.52 -4.46,12.42 -7.43,11.01 0,12.79 10.03,2.13 11.15,-11.72 11.89,-19.89 1.86,-19.89 -4.09,0 -7.43,2.48 -7.43,5.33z"/>
     <path class="fil0" d="M1813.45 1399.05c-1.11,1.77 -0.37,4.26 1.86,5.68 4.45,2.49 11.15,-0.71 11.15,-5.68 0,-4.26 -10.03,-4.26 -13.01,0z"/>
     <path class="fil0" d="M1755.5 1451.25c-3.35,3.91 -3.72,7.1 -0.75,11.37 9.3,14.57 31.95,4.97 23.41,-9.58 -4.83,-8.89 -15.61,-9.59 -22.67,-1.78z"/>
     <path class="fil0" d="M1545.94 1461.2c-8.17,5.69 -4.45,19.9 5.2,19.9 7.43,0 15.23,-6.75 15.23,-13.14 0,-7.46 -13,-12.08 -20.43,-6.76z"/>
     <path class="fil0" d="M1789.31 1468.31c0,3.19 2.6,5.68 5.94,5.68 3.35,0 5.2,-1.77 4.46,-4.26 -2.23,-6.4 -10.41,-7.45 -10.41,-1.41l0.01 0z"/>
     <path class="fil0" d="M1947.59 1472.57c-3.35,2.83 -5.94,6.76 -5.94,8.51 0,1.18 0.99,2.94 2.47,4.83l24.77 0c1.49,-1.89 2.47,-3.66 2.47,-4.83 0,-3.91 -10.76,-14.2 -14.85,-14.2 -1.88,0 -5.95,2.49 -8.93,5.69z"/>
    </g>
   </g>
   <path class="fil0 str0" d="M1737.89 1182.92c-13.08,0.34 -22.62,-0.01 -28.59,-1.05 -14.95,-2.59 -31.25,-10.38 -48.9,-23.39 -11.55,-8.63 -21.24,-15.87 -29.11,-21.74 -7.87,-5.86 -14,-10.47 -18.39,-13.84 -18.11,-13.08 -37.52,-21.42 -58.21,-25 -18.4,-3.19 -40.39,-1.43 -65.95,5.28 -19,-29.83 -47.36,-48 -85.1,-54.53 -41.4,-7.17 -78.84,3.18 -112.32,31.02 -27.4,22.75 -44.6,48.91 -51.62,78.49l3.06 0.89c3.18,-12.96 11.14,-28.17 23.88,-45.63 17.08,-23.33 36.82,-40.29 59.27,-50.85 24.28,-11.67 50.01,-15.15 77.13,-10.46 35.43,6.14 62.03,23.53 79.81,52.19 -9.43,2.41 -23.71,12.49 -42.91,30.25 -16.05,-8.46 -27.89,-13.36 -35.48,-14.68 -34.96,-6.05 -65.88,0.81 -92.76,20.55 -26.68,20.02 -43.05,47.51 -49.1,82.47 -5.89,34.05 0.68,64.56 19.7,91.54 19.02,26.99 45.66,43.45 79.93,49.38 36.57,6.34 70.32,1.62 101.24,-14.1 31.14,-15.69 54.38,-40.46 69.71,-74.29 15.34,-35.25 25.52,-59.07 30.5,-71.49 10.06,-25.27 35.89,-36.9 77.47,-34.91l1.35 -3.69c-27.12,-2.08 -47.96,-0.72 -62.54,4.1 -20.38,6.89 -35.63,19.66 -45.72,38.28 -10.91,20.62 -20.4,38.53 -28.48,53.71 -8.08,15.18 -14.91,27.97 -20.5,38.38 -12.16,22.3 -29.49,38.97 -52,49.99 -22.84,11.45 -46.33,15.09 -70.48,10.91 -32.2,-5.57 -57.84,-21.74 -76.9,-48.5 -19.02,-26.98 -25.73,-56.57 -20.17,-88.77 5.86,-33.81 21.93,-60.29 48.22,-79.43 26.28,-19.14 56.23,-25.8 89.81,-20 4.83,0.84 15.97,5.61 33.41,14.32 -14.79,15.68 -23.52,31.22 -26.18,46.63 -3.23,18.64 -1.11,35.12 6.37,49.44 8.34,16.14 21.37,25.73 39.08,28.79 6.22,1.08 11.51,1.29 15.89,0.62 -3.7,7.65 -7.84,14.82 -12.42,21.48 -4.59,6.68 -9.76,12.94 -15.52,18.82 -5.22,5.49 -15.3,13.82 -30.26,24.97l2.4 2.55c29.08,-17.48 50.12,-41.2 63.13,-71.17 9.56,-7.34 15.22,-11.94 16.96,-13.76 9.36,-10.23 15.18,-22.02 17.5,-35.36 2.9,-16.79 0.88,-37.27 -6.07,-61.46 -4.58,-15.95 -9.6,-28.67 -15.07,-38.14 17.28,-1.28 36.84,-0.02 58.7,3.76 17.25,2.99 43.26,14.85 78.06,35.55 34.6,20.43 59.04,31.9 73.29,34.36 9.21,1.59 19.07,2.12 29.58,1.57 0.54,-0.38 1.42,-1.06 2.67,-2.02 1.23,-0.99 2.11,-1.66 2.65,-2.03zm-228.64 27.58c-3.31,19.1 -12.55,33.49 -27.73,43.18 0.87,-3.64 1.57,-6.73 2.12,-9.23 0.56,-2.51 0.98,-4.57 1.26,-6.19 3.82,-22.08 2.58,-40.9 -3.75,-56.44 -6.31,-15.53 -18.34,-30.18 -36.1,-43.91 13.08,-11.25 27.21,-19.69 42.4,-25.36 3.82,5.4 8.56,17 14.24,34.8 8.1,24.38 10.62,45.43 7.55,63.14zm-34.55 47.68c-6.88,1.41 -12.73,1.7 -17.57,0.87 -16.32,-2.83 -28.23,-12.11 -35.69,-27.85 -6.81,-13.99 -8.76,-29.48 -5.81,-46.5 1.24,-7.12 5.2,-15.68 11.91,-25.66 5.23,-8.34 10.15,-14.24 14.79,-17.7 31.77,24.46 44.23,56.58 37.33,96.37 -0.63,3.68 -1.36,7.22 -2.19,10.64 -0.83,3.41 -1.75,6.69 -2.77,9.82z"/>
   <path class="fil4" d="M1773.61 1266.89c0,-10 -5.14,-20 -15.42,-30l-2.91 2.92c7.22,9.72 10.83,18.61 10.83,26.66 0,17.23 -13.47,31.81 -40.42,43.75 -3.89,1.67 -10.9,4.24 -21.04,7.71 -10.13,3.48 -23.53,7.85 -40.2,13.13 -53.33,16.66 -81.25,39.3 -83.75,67.91 -6.4,2.5 -12.16,5.07 -17.3,7.71 -5.14,2.64 -9.93,5.35 -14.38,8.13 -0.28,-1.39 -0.42,-4.72 -0.42,-10 0,-19.45 6.12,-37.36 18.34,-53.75 12.77,-17.51 28.88,-26.25 48.33,-26.25 3.89,0 7.57,0.14 11.04,0.42 3.48,0.28 6.87,0.7 10.21,1.25l-1.26 -4.58c-15.27,-10.27 -22.92,-23.88 -22.92,-40.83 0,-17.5 6.25,-32.5 18.75,-45 12.78,-12.77 27.92,-19.16 45.42,-19.16 9.71,0 18.26,2.49 25.63,7.49 7.35,5 11.04,12.22 11.04,21.67 0,7.5 -2.71,14.03 -8.13,19.59 -5.41,5.55 -11.88,8.33 -19.37,8.33 -10,0 -18.47,-5.14 -25.43,-15.41l-6.67 0.83c7.78,14.17 18.33,21.25 31.67,21.25 4.44,0 8.82,-0.97 13.12,-2.92 4.3,-1.94 7.99,-4.44 11.04,-7.49 3.06,-3.06 5.56,-6.67 7.5,-10.84 1.94,-4.16 2.92,-8.61 2.92,-13.33 0,-14.17 -7.36,-25.69 -22.09,-34.58 -12.77,-7.22 -26.8,-10.83 -42.08,-10.83 -21.66,0 -39.71,5.97 -54.16,17.91 -15.83,13.05 -23.75,29.86 -23.75,50.41 0,12.78 4.86,25.69 14.59,38.76 -27.51,0 -49.73,9.31 -66.67,27.92 -16.94,18.05 -25.42,40.83 -25.42,68.33 0,8.62 1.26,18.75 3.76,30.42 -4.72,0.56 -8.69,1.05 -11.88,1.46 -3.2,0.41 -5.91,0.62 -8.13,0.62 -14.99,0 -27.08,-5.55 -36.25,-16.67 -9.17,-11.11 -13.75,-24.3 -13.75,-39.58l0.83 -17.5c-6.67,0.56 -11.67,3.89 -14.99,10 -3.06,5.27 -4.58,11.39 -4.58,18.33 0,16.94 7.08,30.84 21.25,41.67 12.77,10 27.92,14.99 45.41,14.99 7.5,0 16.25,-1.25 26.25,-3.75 7.22,17.23 20.41,30.98 39.58,41.25 17.22,8.89 35.97,13.34 56.25,13.34 25.83,0 47.91,-7.08 66.25,-21.25 19.73,-15.84 29.58,-36.4 29.58,-61.67 0,-7.5 -1.25,-14.59 -3.75,-21.25 -2.5,-6.67 -6.04,-12.49 -10.62,-17.5 -4.58,-5 -10,-9.03 -16.25,-12.09 -6.26,-3.06 -13.13,-4.86 -20.62,-5.42l74.17 -33.75c33.88,-15.55 50.83,-35.14 50.83,-58.75zm-117.92 152.51c0,6.94 -2.56,12.77 -7.7,17.5 -5.14,4.72 -11.18,7.08 -18.12,7.08 -8.9,0 -16.18,-2.64 -21.88,-7.92 -5.7,-5.27 -8.54,-12.35 -8.54,-21.24 0,-4.17 0.69,-9.04 2.08,-14.59 10.83,-4.44 19.44,-6.67 25.83,-6.67 7.77,0 14.44,2.43 20,7.29 5.56,4.85 8.33,11.04 8.33,18.54zm35.42 -3.34c0,19.17 -6.8,35.56 -20.41,49.17 -13.89,13.89 -30.14,20.83 -48.75,20.83 -16.67,0 -32.22,-6.11 -46.67,-18.33 -14.17,-12.22 -22.36,-26.67 -24.58,-43.34 7.77,-4.72 14.16,-8.47 19.16,-11.25 5,-2.78 8.76,-4.86 11.26,-6.25 0.55,13.05 5.41,23.61 14.58,31.66 9.72,8.06 20.97,12.09 33.76,12.09 9.45,0 17.77,-2.64 25,-7.91 7.22,-5.28 10.83,-12.5 10.83,-21.67 0,-4.44 -1.04,-8.75 -3.12,-12.92 -2.08,-4.16 -4.79,-7.77 -8.13,-10.83 -3.33,-3.06 -7.22,-5.49 -11.67,-7.29 -4.44,-1.8 -9.03,-2.71 -13.75,-2.71 -5,0 -12.91,1.39 -23.75,4.17 6.12,-8.62 11.25,-14.45 15.42,-17.51 5.83,-4.16 13.05,-6.25 21.66,-6.25 6.68,0 12.99,1.25 18.96,3.75 5.98,2.5 11.18,5.91 15.63,10.21 4.44,4.3 7.98,9.45 10.62,15.41 2.64,5.98 3.96,12.29 3.96,18.96z"/>
   <path class="fil0" d="M1908.59 1419.64c-0.88,-1.29 -1.03,-2.54 -0.41,-3.76 0.61,-1.22 1.64,-2.14 3.12,-2.76 1.46,-0.63 3.13,-0.87 4.98,-0.7 1.86,0.16 3.59,0.84 5.16,2.04l0.53 0.77c1.86,2.14 3.51,4.36 4.96,6.63 1.43,2.27 2.68,4.54 3.7,6.8 2.68,5.99 4.31,12.46 4.93,19.46 0.62,6.98 0.31,13.88 -0.94,20.69 -1.25,6.81 -3.4,13.44 -6.46,19.88 -3.07,6.43 -6.97,12.14 -11.73,17.11 -4.75,4.97 -10.32,9.08 -16.74,12.29 -6.41,3.22 -13.53,5.02 -21.4,5.41 -9.82,0.53 -20.54,-0.64 -32.18,-3.48 -11.64,-2.83 -23.56,-6.08 -35.82,-9.74l-15 -4.28c-0.59,-0.2 -1.36,-0.37 -2.3,-0.53 -0.94,-0.15 -1.56,-0.34 -1.87,-0.58 -6.43,5.69 -13.53,10.5 -21.33,14.41 -7.79,3.92 -16.37,6.73 -25.74,8.47 -4.7,0.79 -9.55,1.15 -14.59,1.07 -5.03,-0.08 -9.78,-0.73 -14.27,-1.93 -4.47,-1.23 -8.45,-3.11 -11.92,-5.66 -3.47,-2.57 -5.99,-5.99 -7.58,-10.29 -0.73,-2.16 -0.81,-4.58 -0.27,-7.27 0.55,-2.69 1.98,-5.34 4.3,-7.91 2.32,-2.59 5.63,-5.03 9.9,-7.32 4.28,-2.29 9.77,-4.18 16.49,-5.69 6.89,-1.24 14.59,-1.81 23.08,-1.72 8.5,0.09 17.26,0.57 26.28,1.43 3.87,-5.76 7.26,-12.05 10.2,-18.81 2.96,-6.76 5.63,-13.75 8.02,-20.93 2.39,-7.18 4.58,-14.53 6.59,-22.02 1.99,-7.48 3.9,-14.88 5.71,-22.21 1.45,-5.71 2.92,-11.5 4.36,-17.36 1.45,-5.85 2.84,-11.14 4.15,-15.84l0.24 0.19 4.01 -13.92c2.29,-7.95 4.74,-16.18 7.38,-24.68 2.63,-8.49 5.87,-16.75 9.69,-24.78 -7.43,-0.65 -14.49,-1.51 -21.13,-2.57 -6.66,-1.05 -12.87,-2.09 -18.67,-3.13 -8.98,-1.57 -17.22,-2.86 -24.71,-3.88 -7.48,-1.01 -13.87,-1.15 -19.14,-0.42 -5.13,0.72 -9.55,2.43 -13.28,5.14 -3.72,2.71 -6.61,6.89 -8.65,12.54 -1.74,4.76 -2.38,9.77 -1.93,15.01 0.45,5.23 1.69,10.18 3.76,14.85 1.83,3.98 4.07,7.7 6.75,11.14 2.68,3.46 5.62,6.33 8.84,8.63 3.22,2.31 6.59,3.97 10.12,4.96 3.53,0.99 6.92,1.05 10.19,0.17 2.6,-0.64 4.78,-0.52 6.53,0.37 1.75,0.89 3.02,2.12 3.81,3.71 0.45,1.21 0.49,2.51 0.12,3.92 -0.37,1.38 -1.27,2.61 -2.67,3.65 -4.15,2.7 -9.35,4.48 -15.58,5.36 -9.75,1.07 -18.73,-0.52 -26.95,-4.73 -8.23,-4.23 -14.72,-10.26 -19.48,-18.07 -0.43,-1.09 -0.97,-2.13 -1.6,-3.17 -0.64,-1.05 -1.19,-2.17 -1.64,-3.39 -2.47,-5.59 -4.06,-11.38 -4.74,-17.36 -0.7,-5.99 -0.23,-11.78 1.39,-17.38 2.53,-8.27 5.75,-15.35 9.65,-21.27 3.92,-5.91 8.36,-10.88 13.31,-14.88 4.95,-4.02 10.38,-7.13 16.29,-9.37 5.91,-2.24 12.13,-3.81 18.64,-4.71 6.11,-0.86 12.48,-1.21 19.14,-1.08 6.68,0.13 13.41,0.57 20.23,1.33 6.82,0.75 13.59,1.67 20.32,2.78 6.73,1.13 13.28,2.3 19.67,3.53l8.29 1.6c5.14,-5.67 11,-10.36 17.54,-14.1 6.56,-3.74 14.2,-6.22 22.94,-7.43 4.71,-0.66 9.51,-0.94 14.41,-0.84 4.89,0.1 9.46,0.67 13.7,1.7 4.24,1.03 8,2.63 11.27,4.79 3.27,2.16 5.57,4.98 6.89,8.47 1.27,2.94 1.33,5.87 0.17,8.79 -1.16,2.91 -3.28,5.68 -6.38,8.3 -3.1,2.62 -7.04,5.01 -11.84,7.16 -4.78,2.14 -10.25,4.01 -16.4,5.56 -2.73,0.67 -5.61,1.28 -8.64,1.83 -3.03,0.58 -6.01,1.06 -8.92,1.46 -2.49,0.35 -4.83,0.63 -6.99,0.87 -2.14,0.22 -4.42,0.43 -6.79,0.62 -1.59,4.75 -3.06,9.79 -4.36,15.13 -1.31,5.34 -2.75,11.02 -4.3,17.04l-0.86 4.56c-1.42,6 -2.94,12.11 -4.55,18.33 -1.6,6.25 -3.38,12.59 -5.3,19.09l-5.68 18.59c-2.32,7.68 -4.81,15.48 -7.45,23.41 -2.63,7.93 -5.6,15.82 -8.89,23.7 -3.3,7.88 -6.88,15.52 -10.81,22.93 -3.92,7.4 -8.33,14.33 -13.22,20.81 0.14,-0.02 0.32,-0.01 0.54,0.03 0.22,0.04 0.39,0.06 0.53,0.04 13.1,1.7 25.85,3.15 38.25,4.32 12.38,1.18 23.36,1.1 32.93,-0.23 7.35,-1.03 13.79,-3.56 19.31,-7.57 5.52,-4.02 9.78,-8.92 12.79,-14.72 3.01,-5.79 4.67,-12.17 4.97,-19.14 0.3,-6.95 -1.11,-13.98 -4.19,-21.03 -0.6,-1.2 -1.28,-2.51 -2.04,-3.96 -0.77,-1.45 -1.66,-2.88 -2.72,-4.29zm-171.99 91.13c4.97,-0.83 9.6,-2.29 13.92,-4.36 4.3,-2.09 8.28,-4.72 11.94,-7.92 -5.34,-0.82 -10.46,-1.3 -15.36,-1.47 -4.89,-0.16 -9.55,0.2 -13.95,1.1 -3.99,0.84 -7.21,1.74 -9.69,2.73 -2.48,0.98 -4.42,1.96 -5.84,2.93 -1.42,0.98 -2.39,1.88 -2.91,2.74 -0.52,0.85 -0.67,1.54 -0.46,2.07 0.29,1.09 1.26,1.84 2.86,2.25 1.61,0.42 3.53,0.68 5.73,0.8 2.2,0.12 4.53,0.08 6.97,-0.12 2.45,-0.2 4.72,-0.45 6.79,-0.74zm165.8 -242.5c-3.86,0.82 -7.26,2.22 -10.23,4.18 -2.98,1.97 -5.74,4.54 -8.26,7.72 4.29,0.39 8.17,0.56 11.63,0.5 3.45,-0.05 6.76,-0.44 9.9,-1.16 6.75,-1.37 11.62,-2.9 14.64,-4.58 3.01,-1.69 4.46,-3.45 4.35,-5.27 -0.71,-1.04 -2.8,-1.83 -6.27,-2.42 -3.49,-0.57 -8.74,-0.23 -15.76,1.03z"/>
  </g>
 </g>
</svg>
