<?xml version="1.0" encoding="UTF-8"?>
<!DOCTYPE svg PUBLIC "-//W3C//DTD SVG 1.1//EN" "http://www.w3.org/Graphics/SVG/1.1/DTD/svg11.dtd">
<!-- Creator: CorelDRAW 2021.5 -->
<svg xmlns="http://www.w3.org/2000/svg" xml:space="preserve" width="264.639mm" height="69.7472mm" version="1.1" style="shape-rendering:geometricPrecision; text-rendering:geometricPrecision; image-rendering:optimizeQuality; fill-rule:evenodd; clip-rule:evenodd"
viewBox="0 0 2269.68 598.19"
 xmlns:xlink="http://www.w3.org/1999/xlink"
 xmlns:xodm="http://www.corel.com/coreldraw/odm/2003">
 <defs>
  <style type="text/css">
   <![CDATA[
    .fil0 {fill:url(#id0);fill-rule:nonzero}
   ]]>
  </style>
  <linearGradient id="id0" gradientUnits="userSpaceOnUse" x1="6.52" y1="247.39" x2="2269.23" y2="358.57">
   <stop offset="0" style="stop-opacity:1; stop-color:#AC7D22"/>
   <stop offset="1" style="stop-opacity:1; stop-color:#FAE47F"/>
  </linearGradient>
 </defs>
 <g id="Layer_x0020_1">
  <metadata id="CorelCorpID_0Corel-Layer"/>
  <g id="_3000414890352">
   <path id="path2987" class="fil0" d="M581.14 594.98c0.09,-1.76 -0.4,-2.88 -1.09,-2.48 -0.69,0.4 -1.99,-1.28 -2.88,-3.73 -0.95,-2.59 -2.51,-4.48 -3.73,-4.5 -1.65,-0.03 -1.77,-0.4 -0.55,-1.77 1.19,-1.33 1.17,-1.87 -0.05,-2.31 -1.25,-0.45 -1.16,-1.05 0.4,-2.83 1.52,-1.72 1.62,-2.39 0.45,-2.81 -0.85,-0.3 -1.51,-1.1 -1.48,-1.77 0.03,-0.67 0.6,-0.87 1.26,-0.44 0.69,0.45 0.92,-0.05 0.55,-1.17 -0.36,-1.08 -0.01,-1.95 0.78,-1.93 1.04,0.02 1.1,-0.66 0.21,-2.51 -0.98,-2.03 -0.83,-2.52 0.75,-2.5 1.59,0.02 1.69,-0.3 0.49,-1.67 -1.53,-1.76 -4.76,-0.26 -4.46,2.08 0.08,0.6 -0.53,1.33 -1.35,1.62 -0.98,0.34 -1.2,-0.43 -0.63,-2.24 0.47,-1.52 0.33,-2.47 -0.31,-2.11 -0.64,0.36 -2.27,0.22 -3.63,-0.31 -1.95,-0.76 -1.35,-1.13 2.91,-1.79 3.34,-0.52 5.4,-1.5 5.45,-2.6 0.05,-0.97 1.18,-1.75 2.52,-1.73 1.34,0.02 3.26,-1.05 4.26,-2.38 1.81,-2.39 8.34,-5.58 10.38,-5.08 0.58,0.14 4.27,-0.49 8.21,-1.42 3.94,-0.92 10.7,-2.02 15.03,-2.44 4.33,-0.42 8.2,-1.27 8.62,-1.88 0.41,-0.61 1.99,-1.11 3.5,-1.1 1.51,0.01 6.2,-1.6 10.43,-3.57 4.23,-1.97 8.64,-3.58 9.81,-3.58 1.17,0 2.49,-0.55 2.95,-1.24 0.46,-0.68 0.2,-1.25 -0.58,-1.26 -1.73,-0.03 -0.83,-5.62 0.92,-5.72 0.69,-0.04 3.76,-0.74 6.82,-1.56 3.06,-0.82 6.92,-1.12 8.58,-0.67 1.66,0.45 4.83,0.29 7.05,-0.35 2.22,-0.64 7.21,-1.73 11.08,-2.43 10.64,-1.9 16.35,-3.54 16.41,-4.71 0.06,-1.21 -64.17,-1.36 -80.13,-0.19 -8.41,0.62 -11.59,0.36 -14.97,-1.19 -2.36,-1.09 -4.56,-2.06 -4.9,-2.17 -0.34,-0.1 -2.23,-0.9 -4.2,-1.76 -1.97,-0.86 -4.49,-1.24 -5.59,-0.83 -1.11,0.41 -17.79,0.7 -37.07,0.65 -19.28,-0.05 -37.62,0.43 -40.75,1.07 -3.13,0.64 -12.47,1.71 -20.76,2.38 -8.29,0.67 -16.17,1.78 -17.52,2.47 -1.35,0.69 -5.19,0.94 -8.54,0.56 -3.35,-0.37 -6.41,-0.2 -6.81,0.4 -0.4,0.6 -1.24,0.75 -1.86,0.34 -0.62,-0.41 -1.16,-0.14 -1.19,0.59 -0.04,0.73 -0.48,1.21 -0.99,1.06 -2.05,-0.58 -12.91,1.53 -12.96,2.52 -0.06,1.22 -9.61,3.11 -13.16,2.6 -1.31,-0.19 -3.49,0.78 -4.85,2.15 -1.36,1.37 -3.44,2.54 -4.62,2.61 -1.18,0.06 -5.53,0.18 -9.67,0.27 -4.14,0.08 -9.81,0.77 -12.6,1.52 -2.79,0.75 -7.22,1.65 -9.84,2 -2.62,0.35 -4.48,1.13 -4.14,1.74 1.07,1.91 -1.73,2.36 -23.56,3.79 -1.16,0.08 -2.04,0.67 -1.94,1.33 0.09,0.65 -0.98,1.5 -2.37,1.89 -1.4,0.38 -4.01,1.65 -5.8,2.8 -2.35,1.51 -7.13,2.27 -17.04,2.7 -7.57,0.33 -15.07,0.51 -16.66,0.42 -1.59,-0.1 -4.66,0.69 -6.83,1.75 -2.24,1.1 -4.25,1.43 -4.66,0.77 -1,-1.62 -5.33,-3.23 -4.44,-1.65 0.94,1.66 -0.28,1.56 -3.52,-0.3 -6.54,-3.75 -38.51,-1.47 -42.06,3 -1.1,1.39 -1.26,2.33 -0.44,2.62 0.7,0.25 1.25,0.95 1.22,1.56 -0.03,0.61 -0.83,0.79 -1.77,0.41 -0.94,-0.39 -2.12,-0.1 -2.61,0.63 -1.31,1.95 6.2,1.78 10.35,-0.23 1.9,-0.92 6.02,-2.05 9.14,-2.52 3.12,-0.46 6.67,-1 7.89,-1.21 1.22,-0.2 2.17,0.37 2.13,1.27 -0.06,1.16 1.48,1.54 5.26,1.31 4.13,-0.26 4.82,-0.05 3.06,0.92 -1.25,0.69 -2.02,1.71 -1.7,2.28 0.68,1.22 -6.37,2.32 -19.97,3.12 -7.63,0.45 -10.1,0.19 -10.88,-1.16 -0.73,-1.26 -1.03,-1.31 -1.1,-0.17 -0.14,2.31 -7.65,1.82 -10.22,-0.67 -1.2,-1.16 -2.21,-1.58 -2.24,-0.92 -0.04,0.72 -4.1,0.78 -10.34,0.16 -5.65,-0.56 -14.49,-1.4 -19.63,-1.86 -5.14,-0.46 -11.17,-1.52 -13.39,-2.36 -2.22,-0.84 -5.45,-1.27 -7.18,-0.97 -1.73,0.3 -3.47,-0.03 -3.87,-0.74 -0.45,-0.79 -0.11,-0.89 0.86,-0.25 0.99,0.65 1.31,0.54 0.85,-0.28 -0.87,-1.54 -6.77,-3.02 -13.81,-3.46 -4.16,-0.26 -4.99,-0.76 -5,-3.01 -0,-2.41 0.88,-2.78 8.31,-3.53 4.57,-0.46 9.72,-0.69 11.43,-0.51l3.11 0.32 -3.23 -1.86c-5.6,-3.22 -11.15,-4.63 -22.07,-5.61 -5.83,-0.52 -14.21,-1.92 -18.63,-3.12 -10.16,-2.75 -45.85,-3.5 -47.53,-1 -0.58,0.86 -1.69,1.14 -2.48,0.63 -2.03,-1.33 -25.03,-2.12 -24.31,-0.84 0.67,1.2 0.49,1.22 -15.91,1.46 -11.57,0.17 -16.47,0.52 -33.87,2.44 -7.94,0.87 -12.52,0.23 -16.9,-2.37 -1.84,-1.09 -1.4,-1.68 3.29,-4.49 3.78,-2.26 8.33,-3.56 15.13,-4.31 11.61,-1.28 22.71,-2.95 30.74,-4.62 4.8,-1 5.78,-1.65 5.37,-3.56 -0.29,-1.37 -1.23,-2.07 -2.28,-1.69 -0.98,0.36 -1.76,0.02 -1.72,-0.74 0.04,-0.76 1.05,-1.38 2.26,-1.37 1.87,0.01 1.93,-0.17 0.37,-1.23 -1.15,-0.79 -1.26,-1.24 -0.29,-1.24 0.84,0 1.24,-0.85 0.9,-1.89 -0.44,-1.32 0.87,-2.53 4.3,-3.97l4.93 -2.07 -12.19 -0.95c-6.7,-0.52 -15.56,-0.94 -19.68,-0.93 -4.12,0.01 -7.48,-0.06 -7.48,-0.15 0,-0.09 1.2,-1.44 2.65,-3.01 1.45,-1.57 2.63,-2.47 2.6,-2 -0.02,0.47 1.27,0.04 2.87,-0.96 1.6,-0.99 7.11,-2.39 12.25,-3.1 5.14,-0.71 11.62,-2.05 14.39,-2.97 2.77,-0.92 7.08,-1.66 9.58,-1.65 6.97,0.04 24.75,-4.26 19.7,-4.76 -0.63,-0.06 -2.26,-0.39 -3.62,-0.73 -1.36,-0.34 -3.15,-0.78 -3.99,-0.98 -2.83,-0.67 -2.95,-1.9 -0.27,-2.69 1.47,-0.44 4.22,-2.14 6.1,-3.78 1.88,-1.64 4.68,-2.96 6.21,-2.94 1.54,0.02 3.47,-0.72 4.3,-1.66 1.24,-1.4 0.23,-1.87 -5.67,-2.64 -3.95,-0.51 -8.85,-1.24 -10.9,-1.6 -4.87,-0.87 -24.42,-1.06 -25.81,-0.25 -1.87,1.09 -16.2,1.4 -16.15,0.35 0.03,-0.55 0.93,-1.7 2,-2.54 1.07,-0.84 1.98,-2.12 2.02,-2.84 0.04,-0.72 -0.33,-0.94 -0.8,-0.5 -0.48,0.45 -1.59,0.17 -2.47,-0.61 -0.89,-0.79 -1.64,-0.89 -1.67,-0.22 -0.03,0.66 -0.9,1.18 -1.94,1.17 -3.01,-0.05 -2.11,-1.38 2.1,-3.14 4.74,-1.99 4.12,-2.86 -3.28,-4.61 -6.76,-1.6 -7.94,-3.95 -2.95,-5.85 5.17,-1.97 29.11,-4.25 42.72,-4.08 6.38,0.08 13.11,-0.2 14.96,-0.64l3.36 -0.78 -3.42 -2.98c-1.88,-1.64 -4.37,-3.01 -5.54,-3.05 -2.96,-0.11 -3.77,-2.12 -2.03,-5.07 1.83,-3.12 13,-8.6 17.37,-8.54 1.84,0.03 2.94,-0.5 2.53,-1.22 -0.39,-0.7 -1.74,-1.28 -3.01,-1.3 -2.12,-0.03 -4.32,-3.2 -3.75,-5.39 0.58,-2.23 -19.39,-0.04 -21.17,2.32 -1.36,1.8 -33.54,6.06 -36.63,4.85l-2.94 -1.16 2.99 -1.51c1.64,-0.83 12.15,-2.89 23.34,-4.57 20.49,-3.08 25.55,-5.4 12.24,-5.6 -4.09,-0.06 -7.82,-0.84 -9,-1.87 -1.67,-1.46 -4.07,-1.54 -14.27,-0.46 -18.75,1.99 -29.66,3.39 -32.24,4.13 -1.71,0.49 -2.2,0.11 -1.81,-1.41 0.57,-2.21 4.56,-4.76 10.74,-6.84 5.31,-1.79 2.15,-3.49 -4.59,-2.46 -2.92,0.45 -7.86,1.17 -10.98,1.6l-5.67 0.8 4.91 -4.43c2.7,-2.44 4.92,-4.63 4.94,-4.88 0.01,-0.25 -3.45,-0.9 -7.69,-1.45 -10.03,-1.3 -15.29,-4.22 -15.02,-8.33 0.14,-2.17 8.38,-4.96 15.94,-5.39 3.11,-0.18 10.21,-1.15 15.77,-2.16 5.56,-1.01 14.06,-2.03 18.9,-2.26 4.83,-0.24 12.19,-0.97 16.36,-1.63 25.86,-4.11 31.69,-5.13 32.82,-5.75 0.7,-0.38 -1.23,-1.35 -4.28,-2.15 -3.07,-0.81 -5.51,-2.19 -5.47,-3.1 0.1,-2.11 12.94,-6.5 24.49,-8.37 5.62,-0.91 9.81,-2.33 11.23,-3.8 1.27,-1.32 5.54,-2.94 9.73,-3.69 9.49,-1.71 9.33,-3.47 -0.7,-7.41 -2.15,-0.84 -3.62,-2.18 -3.28,-2.98 0.8,-1.8 6.73,-4.48 9.83,-4.43 1.28,0.02 2.01,-0.53 1.62,-1.23 -0.39,-0.7 -4.9,-1.33 -10.02,-1.41 -8.44,-0.13 -11.76,-1.46 -7.6,-3.05 3.72,-1.42 -14.58,-0.9 -23.69,0.67 -11.34,1.95 -17.4,0.97 -17.22,-2.8 0.08,-1.74 3.47,-3.96 12.7,-8.37 8.7,-4.15 12.09,-6.34 10.99,-7.09 -2.09,-1.43 0.11,-2.83 8.64,-5.48 12.04,-3.74 21.76,-10.16 20.7,-13.68 -0.73,-2.4 3.96,-3.63 23.17,-6.1 9.55,-1.22 19.14,-3.07 21.32,-4.1 2.18,-1.03 6.73,-2.16 10.12,-2.51 9.35,-0.97 27.36,-5.2 30.24,-7.11 1.4,-0.93 4.26,-1.7 6.35,-1.72 2.09,-0.02 4.94,-0.5 6.35,-1.07 2.03,-0.83 1.54,-1.09 -2.44,-1.3 -10.65,-0.56 -16.25,-1.7 -17.58,-3.58 -0.9,-1.28 -2.39,-1.69 -4.32,-1.2 -2.54,0.65 -2.63,0.57 -0.67,-0.6 1.25,-0.74 3.25,-1.18 4.43,-0.96 1.18,0.22 2.93,-0.07 3.88,-0.64 1.03,-0.61 2.96,-0.34 4.74,0.67 2.34,1.33 3.54,1.38 5.45,0.26 1.54,-0.91 2.7,-0.99 3.14,-0.2 0.38,0.68 3.9,1.31 7.82,1.39 3.92,0.08 8.49,0.98 10.16,1.99 3.64,2.2 4.89,2.38 4.97,0.7 0.03,-0.69 -0.82,-1.27 -1.89,-1.28 -1.07,-0.02 -1.62,-0.53 -1.21,-1.13 0.41,-0.6 -0.42,-1.43 -1.85,-1.83 -1.42,-0.4 -2.31,-1.46 -1.96,-2.37 0.63,-1.67 6.29,-2.56 23.7,-3.75 15.73,-1.07 20.12,-1.71 20.18,-2.94 0.03,-0.65 -0.79,-1.19 -1.82,-1.2 -1.04,-0.02 -1.82,-1.14 -1.75,-2.54 0.09,-1.84 0.96,-2.49 3.25,-2.46 3.6,0.06 4.31,-1.86 1.03,-2.79 -1.22,-0.34 -7.55,-0.4 -14.08,-0.13 -19.02,0.78 -26.59,0.3 -30.45,-1.91 -1.96,-1.12 -3.94,-1.83 -4.39,-1.56 -0.45,0.27 -0.52,-1.1 -0.14,-3.04 0.83,-4.22 -0.9,-4.91 -13.73,-5.46 -7.68,-0.33 -8.27,-0.53 -5.52,-1.88 4.51,-2.21 20.79,-5.24 30.44,-5.65 4.93,-0.21 9.62,-1.17 11.35,-2.31 3.68,-2.44 5.82,-2.44 8.11,0.01 1.03,1.1 4,1.93 7.01,1.96 9.28,0.1 44.05,-2.89 48.82,-4.2 4.45,-1.22 4.59,-1.42 3.87,-5.55 -0.46,-2.6 -0.22,-4.78 0.61,-5.56 0.94,-0.88 0.94,-1.82 0.02,-3.01 -2.81,-3.65 1.03,-4.34 19.26,-3.45 14.16,0.69 18.6,0.5 21.56,-0.92 3.12,-1.51 16.96,-3.44 26.35,-3.68 1.38,-0.04 5.35,-0.52 8.82,-1.09l6.31 -1.02 -5.59 -1c-3.07,-0.55 -12.36,-0.82 -20.63,-0.59 -8.28,0.22 -20.11,0.25 -26.3,0.07 -6.19,-0.19 -18.34,0.47 -26.99,1.46 -17.13,1.96 -34.76,3.24 -42.31,3.08 -2.63,-0.06 -5.17,0.38 -5.63,0.98 -0.46,0.6 -2.6,1.13 -4.75,1.18 -2.15,0.05 -3.94,0.57 -3.96,1.14 -0.03,0.57 -1.3,0.66 -2.83,0.2 -2.17,-0.66 -2.38,-0.54 -0.96,0.51 1.56,1.16 1.51,1.34 -0.38,1.33 -1.2,-0.01 -2.22,0.61 -2.26,1.38 -0.04,0.86 -1.22,0.6 -3.05,-0.67 -3.32,-2.3 -4.8,-2.68 -3.84,-0.97 0.35,0.62 -0.5,1.4 -1.89,1.73 -1.44,0.35 -2.49,-0.01 -2.45,-0.84 0.04,-0.84 -1.9,-1.48 -4.62,-1.52 -2.98,-0.05 -4.61,0.48 -4.47,1.44 0.15,1.04 -1.21,1.3 -4.37,0.85 -5.18,-0.75 -10.17,-3.75 -10.09,-6.06 0.03,-0.99 -0.41,-0.87 -1.25,0.32 -1.01,1.45 -1.27,1.07 -1.15,-1.67 0.2,-4.52 2.45,-8.35 4.89,-8.31 1.05,0.02 1.59,-0.54 1.19,-1.24 -0.39,-0.7 0.31,-1.29 1.56,-1.33 4.13,-0.11 6.79,-0.83 9.67,-2.62 2.58,-1.6 8.42,-0.88 8.33,1.03 -0.02,0.34 -0.77,0.33 -1.68,-0.04 -0.9,-0.37 -2.49,0.3 -3.52,1.48 -1.61,1.85 -1.62,2.01 -0.04,1.1 1.41,-0.8 1.6,-0.52 0.84,1.24 -0.59,1.37 -0.37,2.71 0.56,3.33 2.32,1.56 4.35,1.3 2.25,-0.28 -1.36,-1.03 -0.63,-1.18 2.96,-0.62 2.64,0.41 5.83,0.12 7.13,-0.65 1.78,-1.06 2.78,-1.02 4.12,0.16 1.42,1.25 1.97,1.12 2.84,-0.66 0.59,-1.22 1.01,-2.63 0.93,-3.15 -0.08,-0.52 0.64,-0.93 1.62,-0.92 0.97,0.01 2.02,-0.61 2.32,-1.4 0.3,-0.78 2.21,-1.58 4.24,-1.76 2.03,-0.18 4.36,-1.19 5.18,-2.23 0.82,-1.04 1.93,-1.47 2.46,-0.96 0.53,0.51 0.66,-0.06 0.29,-1.27 -0.83,-2.71 1.57,-2.93 2.47,-0.22 0.57,1.72 0.93,1.71 3.1,-0.15 2.32,-1.98 2.45,-1.96 2.35,0.3 -0.08,2 0.11,2.09 1.21,0.53 1.95,-2.77 1.72,-3.39 -1.59,-4.28 -2.1,-0.57 -2.91,-1.61 -2.68,-3.45 0.36,-2.92 4.83,-5.04 9.84,-4.67 4.67,0.35 8.88,-1.2 8.98,-3.3 0.07,-1.35 1.33,-1.73 4.77,-1.43 5.02,0.45 13.58,-0.83 16.71,-2.5 1.56,-0.83 1.45,-1.05 -0.57,-1.16 -1.37,-0.07 -5.3,-0.45 -8.72,-0.82 -10.59,-1.16 -24.75,-1.35 -29.9,-0.4 -3.54,0.66 -4.66,0.52 -3.98,-0.49 0.58,-0.86 0.26,-1.15 -0.85,-0.75 -1.05,0.38 -2.65,-0.79 -3.87,-2.83 -1.49,-2.49 -1.65,-3.62 -0.55,-3.96 1.03,-0.32 0.82,-1.07 -0.63,-2.29 -1.98,-1.65 -1.84,-1.74 1.55,-1.1 2.05,0.39 3.03,0.37 2.19,-0.05 -3.1,-1.55 -1.27,-3.06 3.59,-2.98 3.16,0.05 4.98,0.66 4.95,1.64 -0.04,1.15 0.25,1.12 1.1,-0.12 0.73,-1.06 1.43,-1.2 1.88,-0.4 0.77,1.37 2.37,1.29 6.36,-0.32 1.37,-0.55 4.34,-1.02 6.61,-1.03 5.19,-0.02 7.03,-3.11 1.9,-3.19 -2.03,-0.03 -3.85,-0.88 -4.21,-1.95 -0.42,-1.28 0.15,-1.88 1.77,-1.85 1.32,0.02 2.89,-0.66 3.48,-1.51 1.55,-2.22 6.78,-4.81 8.05,-3.97 0.59,0.39 1.46,0.14 1.93,-0.55 0.47,-0.69 2.4,-1.24 4.3,-1.21 1.9,0.03 6.56,-0.81 10.35,-1.88 5.99,-1.67 6.54,-2.07 4.17,-3.02 -1.5,-0.6 -11.93,-1.15 -23.17,-1.23 -11.25,-0.08 -21.16,-0.61 -22.03,-1.18 -0.9,-0.59 -1.98,-0.45 -2.51,0.34 -1.09,1.61 -40.04,2.25 -40.93,0.66 -0.31,-0.56 -1.46,-0.69 -2.55,-0.29 -1.34,0.48 -1.54,1 -0.62,1.61 0.75,0.49 -0.35,0.87 -2.44,0.83 -2.09,-0.03 -3.78,-0.6 -3.74,-1.26 0.03,-0.66 -0.83,-0.5 -1.93,0.36 -1.09,0.86 -2.37,1.15 -2.83,0.65 -0.46,-0.5 0.61,-1.95 2.38,-3.23l3.23 -2.32 -3.16 0.55c-2.77,0.49 -2.84,0.41 -0.6,-0.6 3.69,-1.66 9.62,-1.39 13,0.59 3.3,1.93 7.57,1.38 7.68,-1 0.05,-1.09 2.55,-1.55 8.21,-1.49 5.1,0.05 8.11,0.59 8.07,1.46 -0.04,0.76 0.68,0.46 1.6,-0.65 1.2,-1.47 4.63,-2.21 12.34,-2.67 5.87,-0.35 14.27,-1.38 18.66,-2.28 4.39,-0.9 9.78,-1.67 11.98,-1.7 2.2,-0.03 6.85,-0.79 10.33,-1.67 5.95,-1.51 5.29,-1.59 -10.59,-1.19 -9.31,0.23 -17.77,0.42 -18.8,0.41 -1.03,-0 -14.05,1.13 -28.93,2.51 -14.88,1.39 -31.08,2.63 -36.01,2.77 -4.93,0.13 -8.73,0.67 -8.44,1.19 0.29,0.52 -1.9,0.91 -4.87,0.87 -2.96,-0.05 -10.5,0.66 -16.74,1.56 -10.71,1.55 -35.78,2.93 -32.32,1.78 0.88,-0.29 1.31,-1.05 0.95,-1.69 -0.36,-0.64 0.93,-1.16 2.87,-1.16 1.93,-0 5.54,-1.04 8.01,-2.32 2.47,-1.27 5.65,-2.82 7.06,-3.44 4.63,-2.04 79.03,-13.13 96.5,-14.38 5.18,-0.37 20.18,-1.63 33.32,-2.79 13.14,-1.16 30.48,-2.56 38.53,-3.1 8.05,-0.54 17.39,-1.77 20.75,-2.71 4.41,-1.24 6.33,-1.33 6.9,-0.31 0.73,1.29 13.91,1.15 29.93,-0.33 2.42,-0.22 10.05,-0.67 16.95,-1 12.39,-0.58 31.33,-2.89 41.98,-5.12 3.01,-0.63 5.98,-0.81 6.6,-0.4 0.62,0.41 9.39,-0.37 19.47,-1.74 14.92,-2.02 18.86,-2.19 21.13,-0.9 2.28,1.29 5.29,1.13 16.57,-0.9 18.77,-3.38 43.27,-7.78 55.47,-9.95 5.56,-0.99 13.64,-2.55 17.96,-3.46 4.32,-0.91 9.71,-1.63 11.97,-1.59 2.27,0.04 6.7,-0.7 9.84,-1.65 5.3,-1.59 16.08,-3.28 44.8,-7.03 14.76,-1.93 17.73,-2.38 32.8,-4.97 6.95,-1.2 18.3,-3.02 25.24,-4.05 6.94,-1.03 14.32,-2.13 16.4,-2.44 14.73,-2.19 17.51,-2.1 20.28,0.64 1.5,1.48 2.69,3.33 2.65,4.12 -0.04,0.78 0.36,1.36 0.88,1.29 0.52,-0.07 2.23,-0.05 3.8,0.06 2.39,0.16 2.63,0.57 1.49,2.51 -1.67,2.84 -0.52,4.41 1.86,2.54 2.69,-2.11 2,-0.19 -1.13,3.19 -1.65,1.77 -4.85,3.33 -7.75,3.77 -4.24,0.65 -4.74,1.03 -3.47,2.68 1.9,2.47 0.19,2.59 80.85,-5.88 5.54,-0.58 15.43,-1.25 21.99,-1.47 6.55,-0.23 18.42,-0.91 26.37,-1.51 7.95,-0.6 18.41,-1.26 23.24,-1.46 4.83,-0.2 11.04,-0.91 13.8,-1.58 2.76,-0.67 13.58,-1.12 24.06,-1 10.48,0.12 19.81,-0.02 20.73,-0.32 2.29,-0.72 31.69,-1.81 38.65,-1.42 3.08,0.17 6.42,1.1 7.43,2.07 2.25,2.17 8.25,2.48 36.23,1.86 12.86,-0.29 24.71,-1.21 28.63,-2.23 5.12,-1.33 13.52,-1.59 35.74,-1.09 15.98,0.36 42.58,0.43 59.12,0.17 33.52,-0.54 31.73,-0.57 66.3,1.47 22.38,1.32 35.31,1.56 55.05,1.03 3.45,-0.09 5.3,-0.44 4.11,-0.78 -1.19,-0.33 -2.13,-1.2 -2.1,-1.92 0.04,-0.86 3.56,-1.01 10.35,-0.42 5.66,0.49 22.65,1.65 37.75,2.59 15.11,0.93 34.47,2.39 43.04,3.23 34.42,3.38 47.55,4.58 65.45,6.01 44.75,3.57 68.36,5.08 93,5.95 11.34,0.4 25.39,1.19 31.22,1.75 5.83,0.56 14.54,1.03 19.36,1.04 4.82,0.01 14.37,0.67 21.22,1.45 6.85,0.78 29.1,1.93 49.44,2.55 20.34,0.62 39.45,1.71 42.46,2.43 3.01,0.72 9.88,1.68 15.26,2.14 5.39,0.46 11.55,1.15 13.7,1.54 7.34,1.33 18.85,2.33 35.72,3.11 14.85,0.69 29.25,2.01 50.49,4.65 3.42,0.42 8.19,0.96 10.59,1.19 2.4,0.23 8.57,0.84 13.71,1.37 5.14,0.52 13.83,1.36 19.32,1.87 5.48,0.51 10.24,1.1 10.58,1.32 0.33,0.22 3.79,0.79 7.69,1.26 3.89,0.48 7.89,1.2 8.88,1.6 0.99,0.4 6.77,0.98 12.85,1.28 16.7,0.82 16.67,0.82 16.57,2.84 -0.05,1.03 0.5,1.89 1.23,1.9 0.73,0.01 0.95,-0.65 0.49,-1.46 -0.57,-1.01 -0.15,-1.2 1.31,-0.61 1.18,0.48 3.39,0.89 4.9,0.92 1.86,0.03 2.78,0.86 2.82,2.55 0.08,3 -0.61,3.13 -2.99,0.58 -2.49,-2.66 -5.43,-2.51 -4.68,0.24 0.37,1.36 0.22,1.66 -0.39,0.79 -0.67,-0.96 -4.19,-1.2 -11.04,-0.73 -11.79,0.8 -20.64,0.39 -36.86,-1.7 -6.5,-0.84 -14.9,-1.88 -18.67,-2.31 -3.77,-0.43 -7.5,-1.01 -8.29,-1.28 -0.79,-0.28 -1.81,0.35 -2.26,1.39 -0.61,1.4 -1.81,1.65 -4.63,0.98 -4.43,-1.06 -7.3,-1.48 -19.17,-2.81 -4.8,-0.54 -9.04,-1.19 -9.44,-1.45 -0.85,-0.55 -17.58,-0.9 -40.53,-0.84 -14.56,0.04 -24.78,-0.84 -32.35,-2.77 -4.26,-1.09 -34.41,-2 -34.46,-1.04 -0.02,0.49 3.74,1.36 8.36,1.93 4.62,0.57 9.52,1.28 10.88,1.57 9.56,2.06 35.31,4.6 56.08,5.53 4.81,0.22 9.32,0.78 10.03,1.26 1.17,0.8 39.34,4.38 41.42,3.89 0.5,-0.12 5.11,0.25 10.24,0.81 7.94,0.87 28.25,2.69 33.35,2.98 1.84,0.11 1.98,1.73 0.23,2.75 -1.25,0.73 -10.69,0.76 -19.2,0.06 -2.6,-0.22 -5.14,-1.14 -5.66,-2.06 -0.7,-1.24 -2.84,-1.48 -8.36,-0.93 -4.08,0.4 -7.81,0.95 -8.29,1.22 -0.47,0.27 -1.67,-0.38 -2.67,-1.45 -0.99,-1.06 -2.13,-1.45 -2.52,-0.87 -0.76,1.13 -25.99,0.25 -33.25,-1.16 -2.39,-0.46 -6.61,-1 -9.38,-1.18 -2.77,-0.19 -6.25,-1.02 -7.73,-1.86 -2.15,-1.22 -2.71,-1.19 -2.77,0.15 -0.05,0.99 -1.76,1.78 -4.16,1.94 -9.93,0.65 -23.78,0.36 -34.71,-0.73 -7.87,-0.78 -11.24,-0.75 -10.06,0.09 4.77,3.38 -4.56,4.87 -18.89,3.01 -12.7,-1.65 -14.98,-1.76 -20.55,-1.01 -2.87,0.39 -6.86,0.23 -8.87,-0.34 -5.29,-1.52 -33.02,-4.5 -45.41,-4.88 -5.85,-0.18 -14.27,-0.77 -18.72,-1.31 -4.45,-0.54 -13.43,-1.36 -19.95,-1.81 -6.52,-0.45 -21.95,-1.81 -34.29,-3.02 -12.34,-1.2 -30.7,-2.7 -40.81,-3.32 -16.47,-1.01 -18.47,-0.91 -19.28,0.95 -0.77,1.77 -2.96,2.04 -14.84,1.81 -7.66,-0.15 -16.49,0.15 -19.62,0.66l-5.68 0.93 9.31 1.54c5.12,0.85 11.29,1.56 13.7,1.58 2.41,0.02 12.22,1.03 21.8,2.25 9.58,1.22 27.81,3 40.5,3.97 12.69,0.97 24.32,2.05 25.83,2.4 1.51,0.35 14.14,1.37 28.06,2.26 25.02,1.6 42.54,2.85 55.87,4.01 3.77,0.33 16.72,1.32 28.77,2.21 12.05,0.89 22.71,1.87 23.68,2.2 0.98,0.32 2.88,1.03 4.23,1.57 1.35,0.54 4.61,1.18 7.25,1.41 2.64,0.23 5.4,1.33 6.15,2.43 1.07,1.6 4.31,2.12 15.72,2.56 7.9,0.3 14.91,0.9 15.58,1.34 0.67,0.43 5.42,1.19 10.56,1.67 24.58,2.32 49.17,4.27 60.5,4.81 6.87,0.33 21.45,1.72 32.41,3.09 10.95,1.37 24.97,2.77 31.15,3.09 42.79,2.25 76.93,4.77 94.82,7.01 6.16,0.77 16.97,1.86 24.03,2.41 7.05,0.55 13.1,1.49 13.43,2.09 0.33,0.6 -1.26,1.1 -3.54,1.12 -2.28,0.02 -5.74,0.13 -7.69,0.24 -1.95,0.11 -3.77,-0.2 -4.05,-0.69 -0.28,-0.49 -2.61,-0.35 -5.19,0.32 -2.62,0.67 -8.29,0.78 -12.84,0.25 -4.48,-0.52 -28.41,-1.49 -53.17,-2.14 -24.76,-0.65 -54.29,-1.7 -65.63,-2.32 -20.2,-1.11 -25.96,-0.71 -12.75,0.88 3.66,0.44 6.92,1.08 7.24,1.42 0.85,0.91 -3.84,3.05 -7.66,3.5 -4.45,0.52 -5.93,2.09 -2.15,2.29 1.66,0.09 10.31,0.79 19.23,1.58 8.92,0.78 26.47,1.91 39.01,2.52 20.61,0.99 22.79,1.3 22.69,3.29 -0.14,2.76 4.87,3.49 35.17,5.13 12.22,0.66 22.48,1.68 22.82,2.27 0.33,0.59 3.07,1.11 6.08,1.15 10.28,0.16 7.23,3.58 -5.54,6.2 -3.6,0.74 -8.42,1.21 -10.7,1.05 -15.2,-1.08 -11.32,1.45 5.68,3.7 6.84,0.91 16.37,1.99 21.17,2.4 4.8,0.41 13.49,1.38 19.3,2.16 5.82,0.78 17.59,1.9 26.17,2.48 10.57,0.72 15.98,1.61 16.77,2.73 0.65,0.92 5.06,2.09 9.89,2.61 4.8,0.52 9.25,1.65 9.89,2.5 0.65,0.85 5.27,1.99 10.27,2.54 5,0.54 10.32,1.84 11.81,2.87 1.71,1.19 7.08,2.16 14.52,2.62 16.04,1 28.57,2.61 29.21,3.75 0.67,1.2 -10.36,2.73 -12,1.66 -0.67,-0.44 -1.24,-0.26 -1.28,0.39 -0.03,0.65 1.89,1.59 4.28,2.08 4.71,0.97 5.53,2.54 2,3.83 -4.17,1.52 1.43,4.13 14.18,6.6 10.71,2.07 17.42,4.53 12.44,4.56 -4.68,0.03 2.43,2.35 9.91,3.23 4.44,0.53 8.7,1.51 9.47,2.19 0.77,0.68 4.93,1.86 9.25,2.63 12,2.14 11.79,3.7 -0.6,4.48 -4.63,0.29 -8.89,1.3 -10.22,2.42 -1.86,1.57 -4.04,1.72 -11.94,0.86 -16.06,-1.76 -19.27,-1.52 -21.85,1.66 -1.26,1.56 -2.07,3.23 -1.8,3.71 0.27,0.49 4.27,1.34 8.89,1.89 4.61,0.55 8.93,1.46 9.59,2.01 0.66,0.55 3.86,1.44 7.1,1.98 8.9,1.48 6.98,3.22 -3.39,3.06 -5.05,-0.08 -9.62,0.27 -10.17,0.78 -0.55,0.51 -5.81,0.85 -11.71,0.76 -7.45,-0.11 -10.9,0.31 -11.33,1.39 -0.42,1.07 0.9,1.58 4.18,1.64 2.64,0.04 6.74,0.63 9.12,1.3 2.38,0.67 9.07,1.65 14.88,2.18 5.8,0.53 11.16,1.49 11.91,2.15 0.74,0.66 1.7,0.87 2.12,0.48 0.42,-0.4 2.05,-0.23 3.62,0.37 2.21,0.84 0.85,1.24 -5.94,1.75 -8.02,0.6 -17.21,2.29 -22.11,4.06 -3.11,1.12 1.58,2.48 15.74,4.57 7.01,1.03 12.73,2.21 12.71,2.62 -0.02,0.41 3.63,0.57 8.12,0.35 6.56,-0.32 8.14,-0.03 8.07,1.44 -0.11,2.27 -4.25,5.93 -6.65,5.86 -1.47,-0.04 -1.44,-0.25 0.16,-1.23 1.65,-1.01 1.6,-1.19 -0.29,-1.24 -1.23,-0.03 -2.61,0.82 -3.07,1.88 -0.72,1.65 -2.99,1.8 -15.35,1.05 -15.49,-0.94 -19.35,-0.17 -16.66,3.33 4.51,5.86 23.74,12.36 37.17,12.57 8.12,0.13 12.28,1.71 12.14,4.62 -0.07,1.46 -2.09,1.8 -9.79,1.66 -5.33,-0.1 -11.92,-0.81 -14.64,-1.58 -2.72,-0.77 -15.65,-1.82 -28.73,-2.33 -23.14,-0.91 -23.8,-0.87 -24.1,1.58 -0.3,2.41 1.14,4.17 3.81,4.64 0.68,0.12 6.03,1.21 11.89,2.42 19.16,3.95 36.22,6.44 53.74,7.84 16.23,1.3 21.71,2.82 19.9,5.52 -0.41,0.62 -1.28,0.78 -1.91,0.36 -0.64,-0.42 -1.04,-0.01 -0.9,0.91 0.14,0.92 -0.71,1.57 -1.91,1.46 -1.19,-0.11 -1.92,0.24 -1.61,0.78 0.3,0.54 -1.37,1.31 -3.73,1.72 -5.1,0.87 -6.4,3.11 -4,6.85 1.28,1.99 1.37,3.17 0.33,4.34 -1.71,1.92 -0.72,3.27 2.43,3.32 1.26,0.02 2.28,0.27 2.27,0.56 -0.01,0.29 0.3,1.51 0.7,2.71 0.67,2 -0.18,2.1 -10.39,1.18 -6.11,-0.55 -13.21,-1.37 -15.77,-1.82 -3.71,-0.65 -4.68,-0.42 -4.75,1.14 -0.05,1.08 -1.03,2.45 -2.17,3.05 -2.94,1.56 -1.58,8.81 1.94,10.32 2.52,1.08 2.52,1.14 0.13,1.26 -2.51,0.13 -2.51,0.13 -0.06,1.25 2.39,1.09 -1.04,1.48 -13.85,1.6 -5.34,0.05 -9.47,1.67 -9.58,3.77 -0.05,1.12 -1.38,1.78 -3.53,1.76 -1.89,-0.02 -4.74,0.29 -6.32,0.68 -2.7,0.67 -2.75,0.83 -0.75,2.44 1.17,0.95 3.68,1.76 5.56,1.81 1.88,0.05 7.04,2.12 11.46,4.61 4.46,2.51 9.86,4.54 12.13,4.58 7.58,0.12 19.33,1.9 18.7,2.83 -0.34,0.51 0.34,0.87 1.51,0.79 1.18,-0.08 2.29,0.84 2.48,2.03 0.43,2.77 -7.19,7.41 -10.97,6.68 -1.51,-0.29 -2.98,0.08 -3.27,0.83 -0.68,1.76 -15.3,2.04 -21.07,0.4 -2.45,-0.7 -15.22,-1.59 -28.39,-1.98 -22.26,-0.66 -28.86,-0.12 -20.61,1.68 1.87,0.41 5.91,1.36 8.97,2.11 3.06,0.75 7.96,1.43 10.88,1.5 2.92,0.08 5.29,0.7 5.25,1.39 -0.03,0.69 0.82,1.27 1.9,1.28 1.08,0.02 3.08,0.67 4.46,1.45 2.47,1.4 2.47,1.43 -0.54,2.85 -5.26,2.48 -3.79,4.93 4.7,7.81 4.36,1.48 8.15,3.51 8.42,4.52 0.27,1.01 0.98,2.17 1.57,2.58 1.85,1.29 -0.63,5.12 -2.75,4.25 -1.07,-0.44 -1.62,-0.44 -1.22,-0.01 0.4,0.43 -0.76,2.18 -2.58,3.89 -2.39,2.25 -4.79,3.15 -8.67,3.24 -2.95,0.07 -5.16,0.5 -4.9,0.95 0.26,0.45 -4.91,0.47 -11.48,0.03 -9.55,-0.64 -12.38,-0.43 -14.14,1.07 -2.43,2.07 -14.77,2.75 -21.1,1.16 -2.42,-0.61 -4.21,-0.46 -4.79,0.4 -0.51,0.75 -2.25,1.35 -3.87,1.32 -3.77,-0.06 -6.97,1.1 -7.04,2.53 -0.03,0.62 0.76,1.13 1.76,1.15 1,0.02 2.25,0.89 2.78,1.95 0.6,1.19 5.41,2.86 12.68,4.4 14.32,3.04 24.75,7.51 23.61,10.12 -0.44,1 -1.58,1.5 -2.54,1.11 -0.96,-0.39 -1.46,-0.2 -1.1,0.43 0.35,0.63 -0.92,2.88 -2.83,5 -2.56,2.84 -4.13,3.63 -5.95,3.02 -1.37,-0.46 -2.19,-0.33 -1.83,0.31 0.36,0.63 -1.31,1.18 -3.71,1.21 -2.4,0.03 -8.36,0.96 -13.25,2.08l-8.89 2.02 2.65 3.02c1.46,1.66 3.17,3.03 3.8,3.04 0.64,0.01 3.04,0.97 5.35,2.13 4.02,2.02 4.11,2.23 2.15,4.98 -1.29,1.81 -1.59,3.17 -0.82,3.68 0.67,0.44 0.83,1.38 0.35,2.09 -0.56,0.83 -1.22,0.68 -1.88,-0.43 -0.66,-1.11 -1.36,-1.27 -2.01,-0.45 -0.55,0.7 -2.73,2.05 -4.84,3.02l-3.84 1.76 3.94 0.49c4.27,0.53 6.4,3.78 3.23,4.93 -1.07,0.39 -2.24,0.39 -2.6,0 -0.36,-0.39 -2.58,0.32 -4.94,1.58 -2.35,1.25 -6.44,2.65 -9.08,3.1 -2.64,0.45 -5.6,1.57 -6.57,2.48 -2.3,2.16 -3.16,2.1 -14.64,-1.06 -10.3,-2.83 -13.26,-2.63 -17.73,1.22 -2.52,2.17 -3.5,2.27 -9.98,0.96 -8.5,-1.72 -24.64,-2.18 -23.8,-0.67 0.33,0.58 4.66,1.82 9.64,2.75 12.68,2.38 14.1,2.87 11.94,4.14 -3.75,2.2 12.29,7.77 28.14,9.78 4.28,0.54 8.03,1.43 8.34,1.98 0.31,0.55 -0.7,2.48 -2.23,4.29 -2.58,3.05 -2.64,3.47 -0.88,5.56 1.05,1.24 1.89,2.57 1.87,2.95 -0.08,1.55 -21.15,-1.01 -28.01,-3.4 -9.86,-3.44 -30.02,-6.15 -31.98,-4.3 -1.04,0.98 -1.09,1.83 -0.18,3.01 1.23,1.6 3.2,2.31 19.67,7.04 5.14,1.48 7.69,2.85 7.62,4.11 -0.08,1.59 -1.56,1.73 -9.34,0.9 -5.92,-0.63 -9.55,-0.52 -10.11,0.3 -0.48,0.71 -0.17,1.3 0.67,1.31 0.84,0.01 1.23,0.31 0.85,0.66 -0.88,0.83 -18.42,-3.17 -20.11,-4.59 -1.33,-1.11 -19.47,-4.21 -23.38,-4 -1.21,0.07 -2.23,0.83 -2.27,1.69 -0.04,0.86 -0.41,2.32 -0.81,3.25 -0.69,1.6 14.43,5.08 40.57,9.34 3.93,0.64 9.14,2.05 11.58,3.13 2.44,1.08 6.2,2 8.35,2.04 5.67,0.1 13.68,2.71 12.3,4 -0.64,0.6 -8.29,1.14 -17.01,1.2 -8.71,0.06 -15.76,0.21 -15.65,0.33 0.11,0.12 2.93,1.35 6.26,2.74 5.81,2.42 5.94,2.59 3.16,4 -2.18,1.1 -4.44,1.11 -9.07,0.03 -7.54,-1.75 -8.54,-1.79 -8.61,-0.32 -0.03,0.63 1.61,1.55 3.64,2.03 6.77,1.61 5.21,3.22 -3,3.09 -4.78,-0.07 -9.65,0.65 -12.05,1.78 -2.43,1.15 -5.12,1.54 -6.76,0.98 -3.51,-1.19 -62.24,-2.53 -61.61,-1.41 1.34,2.38 -15.07,2.11 -28.96,-0.47 -28.13,-5.24 -52.13,-8.34 -67.69,-8.74 -8.6,-0.23 -21.51,-1.28 -28.69,-2.34 -7.18,-1.06 -19.99,-2.62 -28.46,-3.46 -8.47,-0.84 -15.75,-1.75 -16.18,-2.03 -0.43,-0.27 -4.98,-0.92 -10.12,-1.44 -5.14,-0.52 -11.3,-1.21 -13.7,-1.54 -4.98,-0.68 -27.75,-2.31 -44.3,-3.17 -11.97,-0.62 -30.13,-2.05 -42.41,-3.35 -4.11,-0.43 -20.13,-1.23 -35.6,-1.76 -15.47,-0.53 -33.73,-1.52 -40.59,-2.19 -6.85,-0.67 -25.87,-1.37 -42.25,-1.56 -24.78,-0.28 -30,-0.03 -31.07,1.49 -1.08,1.55 -1.43,1.56 -2.31,0.06 -0.69,-1.18 -2.29,-1.54 -4.77,-1.08 -2.06,0.38 -4.32,0.06 -5.04,-0.71 -0.72,-0.77 -3.16,-1.54 -5.42,-1.72 -2.26,-0.18 -5.23,-0.68 -6.58,-1.11 -7.39,-2.34 -15.17,-3.11 -18.38,-1.81 -2.58,1.04 -8.82,-0.33 -7.88,-1.73 0.35,-0.52 -5.66,-1.19 -13.34,-1.49 -20.69,-0.82 -22.82,-1.08 -25.07,-3.07 -1.83,-1.61 -2.02,-1.54 -1.75,0.63 0.21,1.66 -0.29,2.29 -1.55,1.97 -1.02,-0.26 -3.12,-0.51 -4.67,-0.54 -1.55,-0.04 -2.79,-0.5 -2.77,-1.03 0.03,-0.53 -0.84,-1.33 -1.93,-1.77 -1.44,-0.58 -1.8,-0.27 -1.33,1.16 0.45,1.36 0.19,1.66 -0.85,0.96 -0.83,-0.56 -6.84,-1.27 -13.37,-1.59 -13.73,-0.67 -11.68,-0.63 -76.32,-1.4 -27.19,-0.33 -52.89,-1.05 -57.13,-1.62 -4.23,-0.56 -8.66,-0.68 -9.84,-0.25 -2.17,0.79 -43.13,1.77 -55.67,1.34 -9.81,-0.34 -21.23,5.27 -15.14,7.44 0.91,0.32 0.23,1.2 -1.67,2.15 -1.76,0.88 -3.54,2.07 -3.95,2.65 -1.48,2.08 -12.17,3.09 -15.1,1.43 -1.85,-1.05 -6.87,-1.49 -14.81,-1.31 -6.6,0.15 -28.28,0.32 -48.17,0.38 -19.89,0.06 -37.55,0.42 -39.24,0.82 -1.69,0.39 -8.82,0.71 -15.83,0.71 -7.02,-0 -13.91,0.61 -15.33,1.36 -2.53,1.35 -14.25,3.44 -16.16,2.89 -2.36,-0.68 -6.82,-0.59 -10.91,0.23 -2.43,0.48 -5.55,0.77 -6.92,0.63 -1.37,-0.14 -3.61,-0.37 -4.98,-0.51 -1.37,-0.14 -7.87,0.32 -14.45,1.03 -6.58,0.71 -14.39,1.24 -17.37,1.18 -2.97,-0.06 -6.1,0.41 -6.94,1.05 -0.84,0.64 -3.38,1.53 -5.64,1.97 -3.36,0.66 -4.09,0.42 -4.01,-1.31 0.09,-1.88 -0.94,-2.04 -9.01,-1.37 -5.01,0.41 -18.13,0.74 -29.15,0.72 -11.02,-0.01 -23.1,0.59 -26.85,1.35 -3.75,0.75 -7.09,1.36 -7.42,1.36 -0.33,-0.01 0.05,0.85 0.86,1.89 0.81,1.05 3.37,1.93 5.69,1.97 2.32,0.04 4.21,0.3 4.2,0.59 -0.01,0.29 0.27,1.42 0.64,2.52 0.91,2.74 -2.61,2.55 -5.25,-0.28 -1.5,-1.6 -2.24,-1.79 -2.67,-0.66 -0.33,0.86 -1.1,1.23 -1.71,0.83 -0.61,-0.4 -1.13,-0.27 -1.16,0.29 -0.03,0.56 -1.32,1.06 -2.87,1.12 -1.55,0.06 -10.17,0.64 -19.16,1.28 -8.98,0.64 -27.05,1.23 -40.13,1.3 -13.09,0.07 -25.22,0.42 -26.96,0.77 -5.89,1.19 -38.09,3.66 -55.31,4.25 -31.9,1.08 -56.25,5.27 -61.49,10.57 -1.64,1.66 -4.45,2.97 -6.42,3.01 -16.22,0.28 -38.79,1.62 -48.73,2.89 -4.16,0.54 -11.44,1.26 -16.19,1.61 -4.75,0.35 -11.48,1.13 -14.97,1.73 -3.49,0.6 -6.55,1.09 -6.8,1.09 -0.25,-0 -0.38,-1.45 -0.3,-3.21l0 0.01zm0.56 -11.4c0.07,-1.37 -0.48,-1.48 -2.43,-0.49 -1.51,0.76 -2.27,2.04 -1.89,3.18 0.49,1.47 1.05,1.58 2.43,0.49 0.99,-0.78 1.84,-2.21 1.89,-3.18zm211.75 -15.37c4.98,-1.68 4.86,-1.71 -5.57,-1.26 -23.89,1.03 -31.38,1.62 -31.43,2.49 -0.08,1.64 31.64,0.58 37,-1.23zm-580.47 -24.14c0.01,-0.27 -0.82,-0.51 -1.85,-0.52 -1.03,-0.02 -1.9,0.52 -1.94,1.19 -0.03,0.67 0.8,0.9 1.85,0.52 1.05,-0.38 1.92,-0.91 1.94,-1.18zm90.93 -2.85c0.47,-0.7 -0.53,-1.26 -2.29,-1.29 -1.72,-0.03 -3.5,0.51 -3.96,1.19 -0.47,0.7 0.53,1.26 2.29,1.29 1.72,0.03 3.5,-0.51 3.96,-1.19zm-59.12 -7.33c0.06,-1.29 -1.43,-1.44 -4.26,-0.41 -3.2,1.16 -2.43,2.68 1.05,2.07 1.74,-0.3 3.18,-1.05 3.21,-1.66l0 0zm708.02 10.77c4.33,-1.13 4.94,-1.57 2.86,-2.11 -3.3,-0.84 -43.19,0.21 -64.62,1.71 -5.82,0.41 38.89,2.32 48.11,2.05 4.48,-0.13 10.63,-0.88 13.65,-1.66l0 0zm43.56 -3.19c1.39,-0.3 -1.13,-0.57 -5.61,-0.58 -10.68,-0.03 -14.97,1.05 -8.24,2.09 2.74,0.42 6.4,0.38 8.14,-0.1 1.75,-0.47 4.31,-1.11 5.71,-1.42l0 0zm-798.54 -12.01c2.58,-0.04 2.57,-0.1 -0.27,-1.3 -3.34,-1.42 -6.3,-0.78 -6.41,1.37 -0.04,0.79 0.84,1.1 1.95,0.7 1.11,-0.4 3.24,-0.75 4.73,-0.77l-0 0zm817.39 11.26c0.35,-0.33 -1.86,-0.73 -4.91,-0.9 -3.05,-0.16 -5.97,0.33 -6.48,1.09 -0.66,0.98 0.8,1.24 4.91,0.9 3.21,-0.27 6.13,-0.76 6.48,-1.09zm979.19 0.36c0.52,-0.77 -1.46,-1.22 -5.19,-1.19 -5.35,0.05 -5.61,0.17 -2.32,1.07 5.41,1.48 6.58,1.5 7.51,0.12zm-1927.69 -48.29c-0.89,-0.38 -1.97,-0.35 -2.4,0.06 -0.44,0.41 0.29,0.72 1.61,0.68 1.46,-0.04 1.77,-0.33 0.79,-0.75zm14.86 -1.42c2.55,-0.77 2.69,-0.97 0.68,-1.03 -1.38,-0.04 -3.65,0.39 -5.06,0.96 -3.26,1.32 0.03,1.37 4.38,0.07l0 0zm16.77 0.75c1.11,-0.4 2.07,-1.74 2.13,-2.98 0.09,-1.92 -0.68,-2.17 -5.24,-1.67 -5.79,0.63 -9.64,2.71 -5.16,2.78 1.47,0.02 3,0.61 3.39,1.31 0.82,1.46 2.04,1.6 4.88,0.57zm2033.86 9.71c0.03,-0.69 -0.92,-1.26 -2.13,-1.27 -1.87,-0.01 -1.93,0.17 -0.37,1.23 2.29,1.57 2.43,1.57 2.5,0.04zm-1999.29 -82.02c-0.89,-0.38 -1.97,-0.35 -2.4,0.06 -0.44,0.41 0.29,0.72 1.61,0.68 1.46,-0.04 1.77,-0.33 0.79,-0.75l0 0zm-10.07 -3.82c0.1,-2.04 -3.37,-2.33 -8.03,-0.66 -5.07,1.82 -3.95,3.17 2.29,2.77 3.79,-0.24 5.68,-0.94 5.74,-2.12l0 0zm23.2 1.27c-1.15,-2.04 -5.6,-2.63 -5.69,-0.75 -0.05,1.06 1.2,1.78 3.11,1.81 1.76,0.03 2.92,-0.45 2.58,-1.06zm-9.41 -1.55c1.44,-0.88 0.74,-1.21 -2.75,-1.28 -2.58,-0.05 -4.72,0.47 -4.75,1.16 -0.08,1.6 4.96,1.67 7.51,0.12l0 0zm2093.07 -114.31c0.03,-0.69 -0.5,-1.26 -1.19,-1.27 -0.69,-0.01 -1.28,0.54 -1.31,1.23 -0.03,0.69 0.5,1.26 1.19,1.27 0.69,0.01 1.28,-0.54 1.31,-1.23zm10.22 -23.25c-0.84,-0.36 -2.25,-0.38 -3.13,-0.05 -0.88,0.33 -0.19,0.63 1.53,0.66 1.72,0.03 2.44,-0.25 1.6,-0.61zm-18.03 -15.39c-1.53,-0.32 -4.07,-0.36 -5.63,-0.09 -1.56,0.27 -0.31,0.54 2.79,0.59 3.1,0.05 4.38,-0.18 2.84,-0.5zm-57.37 -11.01c0.03,-0.54 -4.56,-1.72 -10.2,-2.62 -5.64,-0.91 -11.59,-2.06 -13.22,-2.56 -1.84,-0.57 -2.7,-0.44 -2.27,0.34 0.39,0.69 5.62,2.05 11.63,3.02 6.01,0.97 11.48,1.95 12.16,2.18 0.68,0.23 1.37,0.46 1.54,0.52 0.17,0.06 0.33,-0.33 0.36,-0.87zm-1824.41 -39.84c2.28,-0.93 2.19,-1.05 -0.81,-1.18 -1.85,-0.08 -3.74,0.42 -4.2,1.1 -1,1.48 1.46,1.52 5.01,0.08zm1816.58 20.81c0.03,-0.59 -5.57,-1.81 -12.43,-2.7 -15.47,-2.01 -18.26,-2.09 -16.75,-0.47 0.63,0.68 7.31,1.83 14.84,2.56 7.53,0.73 13.82,1.41 13.99,1.51 0.17,0.1 0.33,-0.3 0.36,-0.9l-0 -0zm-1885.68 -44.24c0.38,-0.57 -0.12,-1.05 -1.13,-1.06 -1,-0.02 -1.84,0.44 -1.87,1.02 -0.03,0.57 0.48,1.05 1.13,1.06 0.65,0.01 1.49,-0.45 1.87,-1.02zm167.52 0.28c-0.89,-0.38 -1.97,-0.35 -2.4,0.06 -0.44,0.41 0.29,0.72 1.61,0.68 1.46,-0.04 1.77,-0.33 0.79,-0.75zm-194.1 -4.66c0.03,-0.69 -0.92,-1.26 -2.13,-1.27 -1.87,-0.01 -1.93,0.17 -0.37,1.23 2.29,1.56 2.43,1.57 2.5,0.04zm5.1 -1.88c0.02,-0.3 -0.54,-0.56 -1.22,-0.57 -0.69,-0.01 -1.28,0.58 -1.32,1.31 -0.04,0.73 0.51,0.99 1.22,0.57 0.71,-0.42 1.3,-1 1.32,-1.31zm71.75 -7.62c1.74,-0.45 7.14,-1.24 11.98,-1.74 4.85,-0.5 10.81,-1.48 13.25,-2.17 2.45,-0.69 4.44,-1.21 4.44,-1.15 -0.02,0.48 8.68,-2.07 13.02,-3.81 6.59,-2.65 7.1,-4.75 1.18,-4.85 -3.06,-0.05 -4.35,-0.63 -4.29,-1.95 0.09,-1.93 5.73,-2.6 15,-1.8 4.04,0.35 15.7,-1.63 18.42,-3.13 2.03,-1.12 -4.22,-2.52 -12.45,-2.78 -5.35,-0.17 -9.96,0.64 -15.71,2.77 -4.48,1.66 -9.3,3 -10.72,2.99 -2.05,-0.02 -2.22,0.22 -0.82,1.16 0.97,0.65 2.22,0.91 2.79,0.58 0.57,-0.33 1,-0.07 0.97,0.58 -0.05,1.12 -2.83,1.87 -12.47,3.37 -2.31,0.36 -4.54,1.44 -4.96,2.4 -0.62,1.43 -1.11,1.46 -2.65,0.12 -1.58,-1.36 -1.78,-1.31 -1.25,0.36 0.47,1.45 -0.08,1.92 -2.04,1.74 -1.48,-0.14 -4.58,0.23 -6.89,0.82 -2.92,0.74 -4.73,0.61 -5.93,-0.45 -0.97,-0.85 -1.74,-0.98 -1.78,-0.28 -0.07,1.38 -9.8,5.19 -13.13,5.14 -1.18,-0.02 -2.19,0.74 -2.23,1.68 -0.06,1.28 1.6,1.65 6.5,1.47 3.62,-0.14 8.01,-0.62 9.76,-1.07l-0 0zm53.71 -44.66c-0.89,-0.31 -2.24,0.01 -3,0.73 -0.97,0.92 -0.49,1.09 1.61,0.57 1.71,-0.42 2.31,-0.98 1.39,-1.3l0 -0zm1511.6 18.46c0.03,-0.52 -1.66,-1.09 -3.74,-1.27 -2.17,-0.19 -3.49,0.2 -3.1,0.89 0.8,1.43 6.77,1.75 6.84,0.37l0 0zm-1507.39 -31.26l3.13 -0.05 -2.86 -1.22c-3.23,-1.37 -8.95,-0.44 -9.05,1.47 -0.03,0.7 1.21,0.95 2.79,0.55 1.57,-0.39 4.26,-0.73 5.98,-0.76zm1497.75 23.49c0.03,-0.57 -0.79,-1.06 -1.83,-1.07 -1.03,-0.02 -1.9,0.44 -1.93,1.02 -0.03,0.57 0.79,1.06 1.83,1.07 1.03,0.02 1.9,-0.44 1.93,-1.01zm5.23 0.27c-0.89,-0.38 -1.97,-0.35 -2.4,0.06 -0.44,0.41 0.29,0.72 1.61,0.68 1.46,-0.04 1.77,-0.33 0.79,-0.75l0 0zm-1481.38 -25.47c-0.89,-0.38 -1.97,-0.35 -2.4,0.06 -0.44,0.41 0.29,0.72 1.61,0.68 1.46,-0.04 1.77,-0.33 0.79,-0.75zm-140.3 -3.83c0.03,-0.69 -0.5,-1.26 -1.19,-1.27 -0.69,-0.01 -1.28,0.54 -1.31,1.23 -0.03,0.69 0.5,1.26 1.19,1.27 0.69,0.01 1.28,-0.54 1.31,-1.23zm32.69 -2.78c0.07,-1.4 -2.34,-0.21 -3.1,1.54 -0.74,1.71 -0.57,1.79 1.09,0.49 1.09,-0.85 1.99,-1.77 2.01,-2.03l0 0zm12.51 0.35c0.05,-1.03 -0.13,-1.88 -0.4,-1.89 -0.27,-0 -0.86,0.83 -1.3,1.86 -0.45,1.03 -0.27,1.88 0.4,1.89 0.67,0.01 1.25,-0.83 1.3,-1.86zm1640.25 -17.45c-0.89,-0.38 -1.97,-0.35 -2.4,0.06 -0.44,0.41 0.29,0.72 1.61,0.68 1.46,-0.04 1.77,-0.33 0.79,-0.75zm-1150.83 -43.23c0.43,-0.64 0.28,-1.48 -0.33,-1.88 -0.61,-0.4 -1.47,0.11 -1.92,1.14 -0.88,2.02 0.97,2.63 2.24,0.74zm-620.35 528.71c-0.68,-0.87 -0.74,-1.6 -0.14,-1.61 0.6,-0.01 0.07,-0.65 -1.18,-1.42 -3.21,-1.97 -0.2,-3.57 6.26,-3.34 3.38,0.12 4.17,0.44 2.46,0.96 -2.42,0.74 -4.36,3.9 -2.38,3.9 3.68,-0.01 6.41,-1.61 5.93,-3.46 -0.47,-1.81 -0.32,-1.8 1.16,0.14 2.01,2.63 11.51,3.26 12.45,0.82 0.48,-1.24 0.99,-1.22 2.47,0.08 2.34,2.05 3.53,6.97 1.5,6.17 -0.79,-0.31 -1.22,-1.32 -0.95,-2.25 0.34,-1.18 -0.24,-1.06 -1.93,0.38 -1.93,1.65 -4.63,1.98 -13.42,1.64 -6.98,-0.27 -11.45,-1.01 -12.23,-2.01l0 -0zm-17.04 -3.03c-1.62,-1.06 -0.68,-3.83 1.29,-3.8 1.43,0.02 2.51,3.58 1.3,4.29 -0.53,0.31 -1.7,0.09 -2.59,-0.49l0 0zm26.97 -9.67c-1.28,-2.24 -1.12,-2.55 1.4,-2.68 1.56,-0.08 3.69,-0.23 4.72,-0.32 3.36,-0.31 3.93,0.84 1.61,3.25 -2.93,3.03 -5.91,2.94 -7.72,-0.24l-0 0zm758.44 2.42c0.01,-0.3 0.61,-0.89 1.32,-1.31 0.71,-0.42 1.26,-0.16 1.22,0.57 -0.04,0.73 -0.63,1.32 -1.32,1.31 -0.69,-0.01 -1.24,-0.27 -1.22,-0.57zm14.72 -0.63c0.89,-0.84 1.92,-1.21 2.29,-0.82 0.37,0.39 -0.36,1.08 -1.62,1.53 -1.82,0.65 -1.95,0.51 -0.67,-0.71l0 0zm-671.43 -13.86c0.03,-0.6 0.96,-1.81 2.06,-2.67 1.56,-1.22 2.33,-1.24 3.44,-0.05 1.11,1.19 1,1.78 -0.5,2.68 -2.43,1.46 -5.07,1.48 -5,0.04l0 0zm1413.24 10.46c0.03,-0.69 0.87,-1.24 1.86,-1.23 0.99,0.02 2.12,0.6 2.52,1.29 0.39,0.7 -0.45,1.25 -1.87,1.23 -1.42,-0.02 -2.55,-0.6 -2.51,-1.29zm-21.21 -1.66c0.07,-1.43 3.44,-1.52 4.23,-0.12 0.31,0.55 -0.53,1.07 -1.86,1.15 -1.33,0.08 -2.4,-0.38 -2.37,-1.03l0 -0zm-1240.79 -21.25c-0.98,-2.96 0.75,-3.36 4.98,-1.16 2.2,1.15 3.43,2.16 2.74,2.26 -5.31,0.71 -7.21,0.44 -7.72,-1.1zm1082.12 13.86c0.03,-0.69 0.31,-1.25 0.61,-1.25 0.3,0 0.87,0.58 1.26,1.27 0.39,0.7 0.11,1.26 -0.61,1.24 -0.73,-0.01 -1.3,-0.58 -1.26,-1.27zm-17.99 -1.37c-0.5,-0.88 -0.55,-1.94 -0.11,-2.34 1.17,-1.1 2.32,0.56 1.62,2.37 -0.49,1.27 -0.78,1.26 -1.51,-0.03l-0 0zm4.58 0.33c-2.51,-1.08 -1.64,-2.78 1.04,-2.02 1.36,0.38 2.45,1.19 2.42,1.8 -0.06,1.2 -1.04,1.26 -3.45,0.22zm600.19 3.02c-1.37,-1.46 -0.77,-2.94 1.19,-2.91 1.03,0.02 1.84,0.87 1.78,1.91 -0.1,1.96 -1.6,2.46 -2.97,1zm-1552.5 -31.75c-0.31,-0.55 0.54,-1.07 1.89,-1.15 1.35,-0.08 2.1,0.38 1.67,1.02 -0.96,1.42 -2.79,1.49 -3.56,0.13zm11.39 -1.98c0.44,-1.02 1.73,-1.89 2.87,-1.92 1.13,-0.04 4.61,-0.28 7.72,-0.54 4.08,-0.34 5.12,-0.13 3.72,0.76 -1.6,1.02 -1.63,1.25 -0.17,1.29 0.97,0.03 1.4,0.39 0.95,0.82 -0.45,0.42 -4.21,0.92 -8.36,1.11 -6.28,0.29 -7.41,0.03 -6.73,-1.51l0 0zm-510.49 -10.95c-0.85,-1.51 1.58,-2.96 3.19,-1.91 1.36,0.89 0.33,3.13 -1.43,3.1 -0.61,-0.01 -1.4,-0.55 -1.77,-1.19l0 0zm13.44 -32.42c0.03,-0.65 0.63,-1.51 1.33,-1.93 0.73,-0.43 0.92,0.08 0.43,1.19 -0.94,2.16 -1.86,2.54 -1.77,0.74zm9.21 -0.5c0.05,-1 0.55,-1.52 1.12,-1.15 0.57,0.37 0.68,1.19 0.25,1.83 -1.09,1.62 -1.48,1.43 -1.37,-0.68zm2188.58 -129.82c-1,-0.68 -1.25,-1.24 -0.57,-1.22 0.69,0.01 2.07,0.58 3.07,1.26 1,0.68 1.25,1.24 0.57,1.22 -0.69,-0.01 -2.07,-0.58 -3.07,-1.26l-0 0zm-2051.27 -124.88c0.03,-0.54 1.17,-0.97 2.55,-0.95 1.38,0.02 2.48,0.57 2.44,1.21 -0.03,0.65 -1.18,1.07 -2.55,0.95 -1.37,-0.13 -2.47,-0.67 -2.44,-1.21zm53.3 -17.59l-2.82 -2.43 7.54 -0.88c4.15,-0.48 10.49,-0.87 14.11,-0.85 3.61,0.02 6.59,-0.35 6.61,-0.82 0.05,-0.98 7.41,1.08 8.51,2.38 0.4,0.47 -0.99,0.5 -3.1,0.06 -2.35,-0.49 -5.26,-0.07 -7.57,1.08 -2.06,1.03 -6.7,1.88 -10.32,1.89 -3.62,0.01 -6.6,0.47 -6.62,1.03 -0.09,1.8 -3.45,1.02 -6.34,-1.47l0 0zm-15.79 0.12c0.44,-0.41 1.52,-0.44 2.4,-0.06 0.98,0.42 0.67,0.71 -0.79,0.75 -1.32,0.03 -2.05,-0.27 -1.61,-0.68l-0 0zm-21.91 -17.66c0.01,-1.32 0.34,-2.06 0.74,-1.63 0.39,0.42 0.39,1.5 -0.02,2.4 -0.45,0.99 -0.73,0.69 -0.72,-0.77l0 0zm34.69 -10c0.38,-0.56 -0.42,-2.03 -1.77,-3.26 -2.41,-2.2 -2.33,-2.29 5.47,-5.78 9.39,-4.2 10.24,-4.29 10.08,-1.01 -0.08,1.54 -0.96,2.5 -2.31,2.49 -1.78,-0.01 -1.87,0.2 -0.48,1.14 0.94,0.63 2.76,0.97 4.03,0.74 1.27,-0.22 2.29,0.17 2.26,0.87 -0.03,0.7 -1.89,1.15 -4.12,0.99 -2.23,-0.16 -5.19,-0.24 -6.57,-0.18 -2.09,0.09 -2.21,0.32 -0.69,1.35 1.55,1.06 1.5,1.24 -0.37,1.23 -1.2,-0.01 -2.22,0.55 -2.25,1.24 -0.03,0.69 -0.94,1.24 -2.01,1.22 -1.07,-0.02 -1.64,-0.49 -1.27,-1.05l-0 0zm16.5 -9.87c-1.22,-0.8 -1.14,-1.32 0.36,-2.5 2.11,-1.65 3.65,-0.16 2.14,2.08 -0.54,0.8 -1.64,0.98 -2.5,0.42l0 -0zm-40.8 -53.45c-0.39,-0.7 0.13,-1.25 1.16,-1.24 1.03,0.02 2.2,0.6 2.59,1.3 0.39,0.7 -0.13,1.25 -1.16,1.24 -1.03,-0.02 -2.2,-0.6 -2.59,-1.29zm25.9 -5.21c1.91,-2.15 2.64,-2.36 2.57,-0.75 -0.03,0.62 -1,1.46 -2.15,1.88 -1.75,0.63 -1.82,0.45 -0.42,-1.13l0 -0zm1769.41 7.18c1.54,-1.45 9.61,-2.47 11.17,-1.42 0.9,0.6 1.07,1.16 0.38,1.22 -6.77,0.67 -12.15,0.76 -11.55,0.2l-0 0zm-7.52 -1.66c-1.01,-0.68 -0.21,-1.03 2.24,-0.99 2.09,0.03 3.78,0.53 3.75,1.1 -0.07,1.33 -3.95,1.26 -5.99,-0.11l-0 0zm-32.09 -2.1c-5.3,-1.28 -18.26,-2.35 -42.52,-3.49 -8.31,-0.39 -16.28,-1.37 -17.71,-2.19 -1.56,-0.88 -7.14,-1.41 -13.91,-1.3 -6.22,0.09 -11.3,0.04 -11.29,-0.11 0.02,-0.44 7.48,-4 8.35,-3.98 0.42,0.01 0.39,0.57 -0.07,1.25 -0.49,0.72 0.76,1.27 2.99,1.3 2.1,0.03 3.85,-0.51 3.89,-1.19 0.03,-0.69 0.66,-1.24 1.39,-1.23 0.73,0.01 0.87,0.72 0.31,1.57 -0.75,1.15 -0.53,1.23 0.85,0.31 1.03,-0.68 2.99,-1.16 4.36,-1.06 1.37,0.1 5.48,0.31 9.13,0.47 3.65,0.16 6.35,0.71 6.01,1.22 -0.34,0.51 2.84,0.9 7.08,0.87 4.24,-0.04 8.67,0.48 9.84,1.14 1.42,0.8 2.15,0.75 2.2,-0.17 0.04,-0.75 0.73,-0.94 1.53,-0.41 0.81,0.53 6.27,1.19 12.14,1.47 5.87,0.28 10.67,0.57 10.66,0.66 -0,0.08 2.8,0.37 6.23,0.65 3.43,0.28 6.37,0.63 6.54,0.79 0.28,0.27 1.55,0.66 3.7,1.16 0.99,0.23 -5.07,3.78 -6.12,3.59 -0.34,-0.06 -2.85,-0.65 -5.57,-1.31l-0 0zm-50.37 -7.05c0.03,-0.6 -1.04,-1.11 -2.37,-1.13 -1.34,-0.02 -2.76,0.45 -3.16,1.05 -0.4,0.6 0.67,1.11 2.37,1.13 1.71,0.03 3.13,-0.45 3.16,-1.05zm67.11 -2.59c-0.4,-0.71 -1.26,-0.97 -1.92,-0.58 -0.66,0.39 -1.17,0.14 -1.14,-0.55 0.12,-2.43 2.14,-2.43 3.52,-0.01 0.77,1.35 1.14,2.45 0.83,2.44 -0.31,-0.01 -0.89,-0.59 -1.29,-1.29l0 -0zm-26.55 -5.3c-1.25,-1.34 -2.55,-2.18 -2.89,-1.87 -0.33,0.32 -3.36,0.72 -6.72,0.9 -5.83,0.31 -12.9,-2.38 -10.98,-4.18 1.53,-1.44 10.16,-0.96 11.97,0.66 1.85,1.66 5.37,1.77 7.03,0.22 1.39,-1.31 7.76,-0.92 8.57,0.53 1.11,1.97 -0.89,6.25 -2.9,6.22 -0.99,-0.02 -2.82,-1.13 -4.07,-2.47zm12.87 1.16c-0.49,-0.87 -0.29,-1.11 0.49,-0.6 0.72,0.47 1.7,0.29 2.17,-0.4 1.26,-1.87 2.8,-1.5 2.69,0.65 -0.11,2.21 -4.16,2.47 -5.35,0.35zm-1462.44 -32.01c0.44,-0.41 1.52,-0.44 2.4,-0.06 0.98,0.42 0.67,0.71 -0.79,0.75 -1.32,0.03 -2.05,-0.27 -1.61,-0.68l0 -0zm254.17 -31.68c0.03,-0.69 0.31,-1.25 0.61,-1.25 0.3,0.01 0.87,0.58 1.26,1.27 0.39,0.7 0.12,1.26 -0.61,1.25 -0.73,-0.01 -1.3,-0.58 -1.26,-1.27zm29.17 0.58c-1.95,-1.52 -1.36,-3.65 0.84,-3.03 1.4,0.39 2.33,-0.1 2.53,-1.34 0.17,-1.08 0.44,-2.81 0.61,-3.85 0.17,-1.03 1.34,-1.93 2.6,-2 1.27,-0.07 2.73,-0.23 3.25,-0.37 0.52,-0.13 2.66,-0.67 4.75,-1.2 4.65,-1.16 7.24,-2.97 6.39,-4.47 -0.35,-0.62 0.48,-1.1 1.84,-1.08 1.36,0.02 2.72,0.75 3.03,1.61 0.39,1.1 0.89,1.17 1.66,0.25 1.95,-2.36 5.82,-3.05 7.76,-1.38 1.56,1.34 1.71,1.31 0.9,-0.18 -0.75,-1.36 -0.47,-1.59 1.16,-0.92 1.18,0.48 2.9,0.89 3.83,0.9 0.93,0.01 1.98,1.1 2.33,2.42 0.41,1.54 1.45,2.19 2.92,1.84 3.23,-0.79 3.06,-3.89 -0.19,-3.35 -2.57,0.43 -2.57,0.41 -0.07,-0.71 1.41,-0.63 4.47,-1.16 6.8,-1.17 2.33,-0.01 7.71,-0.52 11.95,-1.13 10.99,-1.58 38.56,-4.23 51.1,-4.9 5.87,-0.32 13.22,-0.76 16.33,-0.98 6.55,-0.47 19.48,-1.19 36.41,-2.02 6.56,-0.32 15.6,-0.84 20.09,-1.15 10.8,-0.75 27.72,-0.55 30.04,0.34 1.01,0.39 4.21,1.18 7.11,1.76 2.9,0.57 5.25,1.46 5.23,1.97 -0.03,0.51 -1.51,2.3 -3.29,3.97 -2.64,2.48 -4.42,3.01 -9.54,2.83 -3.74,-0.13 -6.14,0.3 -5.93,1.05 0.2,0.7 4.69,1.39 9.99,1.53 8.32,0.22 13.78,1.92 11.8,3.69 -0.89,0.79 -17.51,1.32 -17.47,0.56 0.02,-0.37 -3.77,-0.56 -8.43,-0.42 -4.66,0.14 -11.67,-0.3 -15.59,-0.99 -3.92,-0.69 -7.4,-0.99 -7.75,-0.67 -0.34,0.32 -3.04,0.67 -6,0.77 -2.96,0.1 -6.96,0.59 -8.88,1.1 -2.08,0.54 -4.12,0.37 -5.03,-0.43 -0.84,-0.74 -6.96,-1.56 -13.61,-1.82 -8.23,-0.33 -11.81,-0.9 -11.21,-1.81 0.48,-0.74 -0.12,-0.57 -1.34,0.36 -1.52,1.16 -3.78,1.41 -7.26,0.8 -3.32,-0.59 -4.8,-0.45 -4.32,0.4 0.82,1.45 0.65,1.48 -10.7,1.6 -4.48,0.05 -9.43,0.52 -11.01,1.04 -1.57,0.52 -2.84,0.48 -2.81,-0.08 0.03,-0.56 -1.36,-1.05 -3.08,-1.07 -1.72,-0.03 -3.15,0.37 -3.18,0.89 -0.02,0.52 -0.92,0.93 -2,0.91 -1.07,-0.02 -1.63,-0.5 -1.25,-1.08 0.94,-1.39 -12.02,0.47 -13.02,1.88 -1.84,2.57 -25.38,4.84 -25.26,2.43 0.04,-0.73 -0.53,-1.34 -1.26,-1.36 -0.73,-0.01 -1.03,0.51 -0.66,1.16 1.04,1.85 -1.89,2.94 -3.68,1.36 -1.2,-1.06 -1.79,-1 -2.32,0.21 -0.46,1.05 -2.54,1.5 -5.84,1.26 -2.82,-0.2 -5.16,0.16 -5.19,0.8 -0.1,2.07 -6.46,0.61 -7.6,-1.74 -0.6,-1.25 -1.66,-1.95 -2.34,-1.55 -0.68,0.4 -0.98,1.2 -0.66,1.77 0.32,0.58 -0.25,1.35 -1.28,1.72 -1.03,0.37 -2.18,0.12 -2.56,-0.55 -0.42,-0.75 -2.04,-0.52 -4.14,0.59 -3.95,2.09 -16.04,4.19 -17.51,3.04l0 -0zm-17.64 -5.97c0.11,-2.2 0.87,-2.51 1.86,-0.76 0.36,0.65 0.07,1.52 -0.65,1.95 -0.72,0.42 -1.27,-0.11 -1.21,-1.19l0 0zm4.82 -2.09c0.76,-0.72 2.11,-1.05 3,-0.73 0.92,0.33 0.33,0.89 -1.39,1.3 -2.11,0.51 -2.59,0.34 -1.61,-0.57l0 0zm431.2 3.5c-1.53,-0.32 -2.77,-1.02 -2.74,-1.54 0.08,-1.53 5.47,-0.62 5.93,1.01 0.23,0.81 0.23,1.4 0.01,1.3 -0.22,-0.1 -1.66,-0.44 -3.2,-0.76zm-25.82 -3.28c3.51,-1.43 5.49,-1.4 3.13,0.05 -1.07,0.65 -2.78,1.14 -3.81,1.09 -1.24,-0.07 -1,-0.45 0.68,-1.14zm7.57 0.23c-0.36,-0.63 0.47,-0.83 1.83,-0.45 2.88,0.81 3.21,1.67 0.62,1.63 -0.99,-0.01 -2.09,-0.54 -2.45,-1.17l-0 0zm-160.94 -5.33c-1.87,-2.01 -0.97,-2.14 14.5,-1.99 9.07,0.08 17.76,-0.07 19.31,-0.34 1.55,-0.27 3.08,-0.02 3.41,0.56 0.33,0.58 2.33,0.97 4.44,0.86 5.71,-0.31 5.65,1.52 -0.07,1.97 -2.7,0.22 -4.63,-0.04 -4.27,-0.56 1.11,-1.65 -0.85,-1.06 -2.91,0.87 -2.23,2.1 -7.54,2.4 -8.61,0.49 -0.47,-0.84 -1.56,-0.84 -3.23,0.01 -2.84,1.44 -5.4,0.39 -4.03,-1.65 0.6,-0.89 0.3,-0.98 -0.91,-0.27 -1,0.59 -4.92,1.33 -8.73,1.64 -5.44,0.44 -7.34,0.1 -8.91,-1.59l0 0zm100.25 3.02c0.03,-0.69 0.31,-1.25 0.61,-1.25 0.3,0.01 0.87,0.58 1.26,1.27 0.39,0.7 0.12,1.26 -0.61,1.25 -0.73,-0.01 -1.3,-0.58 -1.26,-1.27zm-49.93 -3.28c-1.09,-0.75 -1.22,-1.24 -0.33,-1.24 0.82,0 1.81,0.57 2.2,1.27 0.88,1.57 0.45,1.56 -1.88,-0.03zm488.73 7.4c0.7,-1.04 -4.01,-2.35 -5.02,-1.4 -1.41,1.33 -6.99,1.49 -6.92,0.21 0.04,-0.8 -3.51,-1.04 -9.67,-0.67 -7.55,0.45 -10.69,0.11 -14.01,-1.53 -2.35,-1.16 -3.34,-1.84 -2.2,-1.51 1.14,0.33 2.28,0.12 2.53,-0.48 0.25,-0.6 1.3,-1.25 2.34,-1.46 1.04,-0.21 2.34,-0.94 2.88,-1.62 0.54,-0.68 0.93,-0 0.87,1.51 -0.11,2.6 0.08,2.65 3.41,1 3.17,-1.57 3.7,-1.52 5.15,0.47 1.54,2.11 1.59,2.11 0.98,0.02 -0.5,-1.7 0.04,-2.19 2.38,-2.16 1.66,0.03 3.55,1.04 4.19,2.26 0.65,1.23 1.22,1.52 1.28,0.65 0.12,-1.64 3.9,-2.2 3.82,-0.57 -0.03,0.52 4.21,0.97 9.42,1.01 5.21,0.04 9.72,0.53 10.04,1.1 0.32,0.56 1.78,1.04 3.25,1.06 2.14,0.03 2.35,0.35 1.04,1.58 -1.64,1.54 -16.79,2.05 -15.76,0.52l0 -0.01zm20.54 0.28c0.03,-0.57 0.48,-1.08 0.99,-1.11 0.52,-0.04 2.76,-0.28 4.97,-0.53 4.98,-0.57 6.64,1.61 1.83,2.41 -4.75,0.8 -7.86,0.49 -7.8,-0.76zm-89.88 -5.57c0.03,-0.69 -2.05,-1.29 -4.63,-1.33 -2.58,-0.04 -5.13,0.48 -5.67,1.17 -0.65,0.83 -0.97,0.82 -0.94,-0.01 0.05,-1.57 -7.43,-2.06 -7.51,-0.49 -0.03,0.63 -0.55,0.82 -1.16,0.43 -1.16,-0.76 -12.1,-2.11 -23.76,-2.94 -3.78,-0.27 -6.86,-0.62 -6.85,-0.77 0.04,-0.84 -16.42,-1.11 -17.52,-0.28 -1.95,1.47 -14.51,2.32 -14.45,0.98 0.03,-0.64 -0.79,-1.17 -1.82,-1.19 -1.03,-0.02 -1.9,0.51 -1.94,1.18 -0.04,0.75 -8.86,0.85 -23.49,0.25 -12.89,-0.53 -24.79,-0.97 -26.45,-0.99 -1.66,-0.01 -4.87,-0.58 -7.14,-1.25 -2.48,-0.73 -4.14,-0.76 -4.18,-0.08 -0.06,1.14 -4.42,0.89 -5.55,-0.32 -0.33,-0.35 -6.02,-0.52 -12.65,-0.37 -7.99,0.17 -12.62,-0.25 -13.75,-1.24 -1.32,-1.17 -1.72,-1.12 -1.8,0.22 -0.07,1.09 -0.42,1.23 -0.96,0.4 -0.51,-0.8 -7.6,-1.49 -17.74,-1.74 -9.29,-0.23 -37.42,-1.06 -62.52,-1.84 -25.1,-0.78 -57.32,-1.68 -71.59,-1.99 -14.27,-0.31 -25.94,-0.92 -25.92,-1.35 0.02,-0.43 -3.06,-0.83 -6.84,-0.89 -3.78,-0.06 -6.9,0.32 -6.93,0.83 -0.03,0.52 -0.64,0.93 -1.37,0.92 -0.73,-0.01 -0.95,-0.58 -0.49,-1.26 0.46,-0.68 -0.04,-1.26 -1.12,-1.27 -1.07,-0.02 -1.92,-0.59 -1.89,-1.28 0.03,-0.69 -0.54,-1.26 -1.26,-1.27 -0.73,-0.01 -1.01,0.55 -0.61,1.25 0.42,0.75 -0.98,1.23 -3.43,1.18 -3.13,-0.07 -3.67,-0.37 -2.2,-1.27 1.43,-0.88 1.5,-1.2 0.28,-1.23 -1.27,-0.04 -1.2,-0.47 0.32,-1.9 1.08,-1.02 3.14,-1.83 4.56,-1.81 1.43,0.02 2.62,-0.56 2.66,-1.3 0.04,-0.79 1.13,-0.98 2.68,-0.45 1.76,0.6 2.36,0.43 1.83,-0.51 -0.43,-0.77 -0.45,-1.4 -0.05,-1.39 0.41,0.01 1.11,1.18 1.57,2.6l0.83 2.59 3.43 -2.55c2.35,-1.75 3.68,-2.1 4.23,-1.13 0.57,1.01 1.13,0.93 1.93,-0.26 0.92,-1.37 9.52,-1.55 45.91,-0.94 24.63,0.41 54.89,1.26 67.26,1.9 12.37,0.63 32.88,1.64 45.6,2.24 45.9,2.16 57.72,2.86 58.72,3.52 2.23,1.46 12.25,2.88 13.83,1.96 0.97,-0.57 2.05,-0.34 2.57,0.53 0.67,1.13 1.23,1.04 2.22,-0.34 0.73,-1.02 1.31,-1.3 1.28,-0.61 -0.02,0.79 7.69,1.32 20.92,1.43 20.91,0.17 56.53,2.75 56.46,4.08 -0.02,0.39 4.33,0.71 9.67,0.71 9.15,0.01 30.11,2.05 33.79,3.29 1.36,0.46 1.36,0.93 0.02,2.44 -1.35,1.52 -1.33,1.77 0.11,1.35 0.97,-0.29 3.36,-0.84 5.3,-1.24 2.18,-0.44 3.28,-1.31 2.88,-2.25 -0.36,-0.85 -0.04,-0.65 0.71,0.44 1.1,1.61 2.7,1.83 8.36,1.15 3.98,-0.48 7.92,-0.32 9.13,0.37 1.17,0.67 3.72,1.31 5.65,1.44 3.24,0.21 3.27,0.27 0.47,0.75 -2.36,0.4 -2.66,0.78 -1.33,1.67 1.87,1.26 0.24,1.39 -17.39,1.37 -6.15,-0.01 -10.3,-0.52 -10.27,-1.26l-0 -0zm-363.11 -16.91c-0.34,-1.04 -1.14,-1.58 -1.78,-1.21 -1.82,1.07 -1.46,3.03 0.57,3.06 1.12,0.02 1.59,-0.71 1.21,-1.86l-0 0zm-73.19 3.15c1.41,-2.39 1.34,-2.67 -0.46,-2.01 -1.8,0.65 -1.87,0.38 -0.48,-1.99l1.61 -2.74 1.11 2.81c1.27,3.23 3.83,3.74 5.02,0.99 0.45,-1.03 0.36,-1.88 -0.19,-1.88 -0.55,-0.01 -0.96,-0.87 -0.91,-1.91 0.08,-1.54 1.22,-1.73 6.1,-1 4.1,0.61 6.03,0.45 6.08,-0.52 0.04,-0.79 2.05,-1.38 4.52,-1.35 2.92,0.05 4.14,0.54 3.54,1.43 -0.65,0.97 -0.14,0.97 1.78,-0 2.24,-1.14 2.55,-1.05 1.87,0.53 -0.45,1.04 -1.33,1.89 -1.94,1.88 -0.61,-0.01 -1.14,0.55 -1.18,1.24 -0.13,2.61 2.21,1.14 3.88,-2.45 1.95,-4.18 1.99,-4.21 5.05,-2.47 1.54,0.87 1.96,2.21 1.42,4.46 -0.43,1.77 -0.27,3.06 0.34,2.87 0.61,-0.19 1.37,0.21 1.68,0.89 0.33,0.73 -2.67,1.27 -7.35,1.32 -7.24,0.08 -8.02,-0.17 -9.14,-2.93 -1.2,-2.98 -5.76,-4.35 -5.89,-1.77 -0.04,0.73 0.51,0.99 1.21,0.58 0.72,-0.42 0.92,0.06 0.47,1.11 -0.47,1.08 -1.61,1.53 -2.75,1.06 -1.26,-0.51 -1.66,-0.29 -1.13,0.65 0.93,1.65 -3.29,2.79 -8.09,2.19 -1.71,-0.21 -4.16,0.1 -5.45,0.69 -2.1,0.97 -2.17,0.79 -0.71,-1.69l0 0zm34.46 -4.18c0.38,-0.57 -0.1,-1.05 -1.07,-1.06 -0.97,-0.02 -1.5,0.45 -1.17,1.03 0.33,0.58 0.81,1.06 1.07,1.06 0.26,0 0.79,-0.46 1.17,-1.03zm-51.33 4.16c-0.35,-0.62 0.51,-1.4 1.9,-1.74 1.68,-0.41 2.3,-1.28 1.86,-2.62 -0.37,-1.1 -0.14,-2 0.51,-1.99 1.72,0.03 1.24,4.12 -0.69,5.93 -1.96,1.84 -2.72,1.93 -3.57,0.42l0 -0zm7.84 -3.37c0.4,-0.91 0.88,-1.66 1.08,-1.66 0.2,0 0.61,0.76 0.92,1.69 0.31,0.92 -0.18,1.67 -1.08,1.66 -0.9,-0.01 -1.31,-0.77 -0.92,-1.69zm5 -3.44c1.39,-0.99 3.75,-1.8 5.26,-1.8 2.99,0 4.79,1.93 2.87,3.06 -0.66,0.39 -1.39,0.05 -1.61,-0.75 -0.31,-1.09 -1.09,-1.1 -3.15,-0.06 -3.95,2 -6.35,1.67 -3.37,-0.46l0 0zm-16.62 -0.43c0.44,-0.41 1.52,-0.44 2.4,-0.06 0.98,0.42 0.67,0.71 -0.79,0.75 -1.32,0.03 -2.05,-0.27 -1.61,-0.68zm66 0.53c-1.55,-1.06 -1.5,-1.24 0.37,-1.23 1.2,0.01 2.16,0.58 2.13,1.27 -0.07,1.53 -0.22,1.53 -2.5,-0.04zm-6.63 -2.01c-0.52,-1.57 -0.19,-1.67 1.77,-0.55 2.82,1.6 3.05,2.54 0.61,2.5 -0.96,-0.01 -2.03,-0.89 -2.38,-1.95z"/>
  </g>
 </g>
</svg>
